<svg class="animated" id="freepik_stories-price" xmlns="http://www.w3.org/2000/svg" viewBox="0 0 500 500" version="1.1" xmlns:xlink="http://www.w3.org/1999/xlink" xmlns:svgjs="http://svgjs.com/svgjs"><style>svg#freepik_stories-price:not(.animated) .animable {opacity: 0;}svg#freepik_stories-price.animated #freepik--Floor--inject-76 {animation: 1.5s Infinite  linear floating;animation-delay: 0s;}svg#freepik_stories-price.animated #freepik--Screen--inject-76 {animation: 1.5s Infinite  linear floating;animation-delay: 0s;}svg#freepik_stories-price.animated #freepik--speech-bubbles--inject-76 {animation: 1.5s Infinite  linear heartbeat;animation-delay: 0s;}            @keyframes floating {                0% {                    opacity: 1;                    transform: translateY(0px);                }                50% {                    transform: translateY(-10px);                }                100% {                    opacity: 1;                    transform: translateY(0px);                }            }                    @keyframes heartbeat {                0% {                    transform: scale(1);                }                10% {                    transform: scale(1.1);                }                30% {                    transform: scale(1);                }                40% {                    transform: scale(1);                }                50% {                    transform: scale(1.1);                }                60% {                    transform: scale(1);                }                100% {                    transform: scale(1);                }            }        </style><g id="freepik--Floor--inject-76" class="animable animator-active" style="transform-origin: 250px 345.414px;"><path d="M418.09,247.72c-93.44-53.95-244.44-53.95-337.28,0s-92.34,141.42,1.1,195.37,244.44,54,337.28,0S511.53,301.67,418.09,247.72Z" style="fill: rgb(245, 245, 245); transform-origin: 250px 345.414px;" id="el6tr6qubmbs" class="animable"></path></g><g id="freepik--Shadows--inject-76" class="animable" style="transform-origin: 254.996px 359.761px;"><path d="M398.92,338.46l-78-45-94.77,54.69a3.72,3.72,0,0,0,0,6.44l25.6,14.76c-15.77-1.88-32.79.71-45,7.8-19.26,11.19-19.16,29.33.22,40.52s50.71,11.19,70,0c12.2-7.09,16.62-17,13.3-26.11l4.65,2.69a18.58,18.58,0,0,0,18.57,0l85.45-49.33A3.72,3.72,0,0,0,398.92,338.46Z" style="fill: rgb(224, 224, 224); transform-origin: 296.587px 359.761px;" id="elae21p4169ce" class="animable"></path><path d="M406.73,421.72l-52-30a2.3,2.3,0,0,1,0-4L400.55,361a2.32,2.32,0,0,1,2.31,0l53.19,30.71a2.3,2.3,0,0,1,0,4l-44.71,26A4.6,4.6,0,0,1,406.73,421.72Z" style="fill: rgb(224, 224, 224); transform-origin: 405.39px 391.513px;" id="el6c9x557669n" class="animable"></path><g id="eljgwt4mee6h"><g style="opacity: 0.1; transform-origin: 119.868px 349.662px;" class="animable"><path d="M54.65,376.27c-2.49,1.43-2.5,3.76,0,5.19l10.15,5.86a9.87,9.87,0,0,0,9,0L185.09,323c2.48-1.43,2.5-3.76,0-5.2L175,312a9.91,9.91,0,0,0-9,0Z" style="fill: rgb(224, 224, 224); transform-origin: 119.868px 349.662px;" id="elqnetf4k23zo" class="animable"></path></g></g><g id="elgwi4q99nxv8"><g style="opacity: 0.1; transform-origin: 142.983px 363.565px;" class="animable"><path d="M85.88,385.5c-2.49,1.43-2.5,3.76,0,5.19L96,396.55a9.85,9.85,0,0,0,9,0l95.09-54.92c2.48-1.43,2.5-3.76,0-5.2l-10.15-5.86a9.93,9.93,0,0,0-9,0Z" style="fill: rgb(224, 224, 224); transform-origin: 142.983px 363.565px;" id="elc5aoivqf9ch" class="animable"></path></g></g></g><g id="freepik--Windows--inject-76" class="animable" style="transform-origin: 370.9px 136.015px;"><polygon points="330.15 137.44 330.03 179.43 332.37 180.78 332.49 138.79 330.15 137.44" style="fill: rgb(224, 224, 224); transform-origin: 331.26px 159.11px;" id="elripzco30x5" class="animable"></polygon><polygon points="332.49 138.78 332.49 138.79 332.37 180.78 334.4 179.6 334.51 139.95 332.49 138.78" style="fill: rgb(240, 240, 240); transform-origin: 333.44px 159.78px;" id="elczoidof1vxj" class="animable"></polygon><g id="elsldsceay99l"><rect x="331.32" y="136.76" height="2.7" style="fill: rgb(224, 224, 224); transform-origin: 331.32px 138.11px; transform: rotate(-60deg);" class="animable"></rect></g><g id="el2mazr44t67y"><polygon points="332.49 140.67 332.49 138.79 330.15 137.44 330.15 139.32 332.49 140.67 332.49 140.67" style="opacity: 0.2; transform-origin: 331.32px 139.055px;" class="animable"></polygon></g><g id="elit0bvitpb"><polygon points="332.49 140.67 334.12 139.73 332.49 138.78 332.49 138.79 332.49 140.67" style="opacity: 0.2; transform-origin: 333.305px 139.725px;" class="animable"></polygon></g><g id="eloz30g2b6tc8"><rect x="331.32" y="136.76" height="2.7" style="fill: rgb(224, 224, 224); transform-origin: 331.32px 138.11px; transform: rotate(-60deg);" class="animable"></rect></g><polygon points="330.15 92.44 330.03 134.43 332.37 135.77 332.49 93.78 330.15 92.44" style="fill: rgb(224, 224, 224); transform-origin: 331.26px 114.105px;" id="ely6bqyia9n6a" class="animable"></polygon><polygon points="332.49 93.78 332.49 93.78 332.37 135.77 334.4 134.59 334.51 94.95 332.49 93.78" style="fill: rgb(240, 240, 240); transform-origin: 333.44px 114.775px;" id="els2c5qrdkjom" class="animable"></polygon><g id="ela4kelf4hxdq"><rect x="331.32" y="91.76" height="2.7" style="fill: rgb(224, 224, 224); transform-origin: 331.32px 93.11px; transform: rotate(-60deg);" class="animable"></rect></g><g id="elgg4a430pmb"><polygon points="332.49 95.67 332.49 93.78 330.15 92.44 330.15 94.32 332.49 95.67 332.49 95.67" style="opacity: 0.2; transform-origin: 331.32px 94.055px;" class="animable"></polygon></g><g id="el7cmzu4hd06v"><polygon points="332.49 95.67 334.12 94.73 332.49 93.78 332.49 93.78 332.49 95.67" style="opacity: 0.2; transform-origin: 333.305px 94.725px;" class="animable"></polygon></g><g id="el8qcmlec07rt"><rect x="331.32" y="91.76" height="2.7" style="fill: rgb(224, 224, 224); transform-origin: 331.32px 93.11px; transform: rotate(-60deg);" class="animable"></rect></g><polygon points="330.15 47.43 330.03 89.42 332.37 90.77 332.49 48.78 330.15 47.43" style="fill: rgb(224, 224, 224); transform-origin: 331.26px 69.1px;" id="eljx3nppeegd" class="animable"></polygon><polygon points="332.49 48.78 332.49 48.78 332.37 90.77 334.4 89.59 334.51 49.95 332.49 48.78" style="fill: rgb(240, 240, 240); transform-origin: 333.44px 69.775px;" id="ellt43gdimlcl" class="animable"></polygon><g id="ellys7thwvil"><rect x="331.32" y="46.76" height="2.7" style="fill: rgb(224, 224, 224); transform-origin: 331.32px 48.11px; transform: rotate(-60deg);" class="animable"></rect></g><g id="elspox4w5w3eb"><polygon points="332.49 50.67 332.49 48.78 330.15 47.43 330.15 49.32 332.49 50.67 332.49 50.67" style="opacity: 0.2; transform-origin: 331.32px 49.05px;" class="animable"></polygon></g><g id="elr3nnnpqlsfi"><polygon points="332.49 50.67 334.12 49.72 332.49 48.78 332.49 48.78 332.49 50.67" style="opacity: 0.2; transform-origin: 333.305px 49.725px;" class="animable"></polygon></g><g id="elhqzu4l4wyq9"><rect x="331.32" y="46.76" height="2.7" style="fill: rgb(224, 224, 224); transform-origin: 331.32px 48.11px; transform: rotate(-60deg);" class="animable"></rect></g><g style="isolation: isolate; transform-origin: 409.52px 203.52px;" id="eltyb0h1rlpci" class="animable"><polygon points="379.27 166.2 381.3 165.02 381.19 207.01 379.15 208.19 379.27 166.2" style="fill: rgb(240, 240, 240); transform-origin: 380.225px 186.605px;" id="eldrzachw5dbl" class="animable"></polygon><polygon points="379.15 208.19 381.19 207.01 439.76 240.83 437.73 242.01 379.15 208.19" style="fill: rgb(245, 245, 245); transform-origin: 409.455px 224.51px;" id="elykje87ur6nd" class="animable"></polygon><path d="M376.94,162.17l63.25,36.52-.13,47.36-63.25-36.52ZM437.73,242l.12-42L379.27,166.2l-.12,42L437.73,242" style="fill: rgb(224, 224, 224); transform-origin: 408.5px 204.11px;" id="el7lq48lu8pbq" class="animable"></path><polygon points="376.94 162.17 378.98 160.99 442.23 197.51 440.19 198.69 376.94 162.17" style="fill: rgb(245, 245, 245); transform-origin: 409.585px 179.84px;" id="elmdj5jhxpzto" class="animable"></polygon><polygon points="440.19 198.69 442.23 197.51 442.09 244.87 440.06 246.05 440.19 198.69" style="fill: rgb(240, 240, 240); transform-origin: 441.145px 221.78px;" id="els0mzub9aaeo" class="animable"></polygon></g><polygon points="407.39 182.44 407.27 224.43 409.61 225.78 409.73 183.79 407.39 182.44" style="fill: rgb(224, 224, 224); transform-origin: 408.5px 204.11px;" id="elpkr8hcbtzs" class="animable"></polygon><polygon points="409.73 183.79 409.73 183.79 409.61 225.78 411.64 224.6 411.75 184.96 409.73 183.79" style="fill: rgb(240, 240, 240); transform-origin: 410.68px 204.785px;" id="elbkbe60ua26l" class="animable"></polygon><g id="el270walk76ou"><rect x="408.56" y="181.76" height="2.7" style="fill: rgb(224, 224, 224); transform-origin: 408.56px 183.11px; transform: rotate(-60deg);" class="animable"></rect></g><g id="elj79p0iswfu"><polygon points="409.72 185.67 409.73 183.79 407.39 182.44 407.39 184.32 409.72 185.67 409.72 185.67" style="opacity: 0.2; transform-origin: 408.56px 184.055px;" class="animable"></polygon></g><g id="el9iyxvt0yf0i"><polygon points="409.72 185.67 411.36 184.73 409.73 183.79 409.73 183.79 409.72 185.67" style="opacity: 0.2; transform-origin: 410.54px 184.73px;" class="animable"></polygon></g><g id="elte6vt3yrzf"><rect x="408.56" y="181.76" height="2.7" style="fill: rgb(224, 224, 224); transform-origin: 408.56px 183.11px; transform: rotate(-60deg);" class="animable"></rect></g><g style="isolation: isolate; transform-origin: 409.52px 158.52px;" id="eljzg7nvraxy9" class="animable"><polygon points="379.27 121.2 381.3 120.02 381.19 162.01 379.15 163.19 379.27 121.2" style="fill: rgb(240, 240, 240); transform-origin: 380.225px 141.605px;" id="eluwe2bedtqf" class="animable"></polygon><polygon points="379.15 163.19 381.19 162.01 439.76 195.83 437.73 197.01 379.15 163.19" style="fill: rgb(245, 245, 245); transform-origin: 409.455px 179.51px;" id="el3ac3tso6eoy" class="animable"></polygon><path d="M376.94,117.17l63.25,36.51-.13,47.37-63.25-36.52ZM437.73,197l.12-42L379.27,121.2l-.12,42L437.73,197" style="fill: rgb(224, 224, 224); transform-origin: 408.5px 159.11px;" id="el3u55hv0glqr" class="animable"></path><polygon points="376.94 117.17 378.98 115.99 442.23 152.5 440.19 153.69 376.94 117.17" style="fill: rgb(245, 245, 245); transform-origin: 409.585px 134.84px;" id="eloz0svhihqq" class="animable"></polygon><polygon points="440.19 153.69 442.23 152.5 442.09 199.87 440.06 201.04 440.19 153.69" style="fill: rgb(240, 240, 240); transform-origin: 441.145px 176.77px;" id="elzdwkez7xl77" class="animable"></polygon></g><polygon points="407.39 137.44 407.27 179.43 409.61 180.78 409.73 138.79 407.39 137.44" style="fill: rgb(224, 224, 224); transform-origin: 408.5px 159.11px;" id="elop4qhxbcj39" class="animable"></polygon><polygon points="409.73 138.78 409.73 138.79 409.61 180.78 411.64 179.6 411.75 139.95 409.73 138.78" style="fill: rgb(240, 240, 240); transform-origin: 410.68px 159.78px;" id="ellczt7q0yato" class="animable"></polygon><g id="el4ag9lhn1y0f"><rect x="408.56" y="136.76" height="2.7" style="fill: rgb(224, 224, 224); transform-origin: 408.56px 138.11px; transform: rotate(-60deg);" class="animable"></rect></g><g id="elj670vmukq49"><polygon points="409.72 140.67 409.73 138.79 407.39 137.44 407.39 139.32 409.72 140.67 409.72 140.67" style="opacity: 0.2; transform-origin: 408.56px 139.055px;" class="animable"></polygon></g><g id="el685oeivnco"><polygon points="409.72 140.67 411.36 139.73 409.73 138.78 409.73 138.79 409.72 140.67" style="opacity: 0.2; transform-origin: 410.54px 139.725px;" class="animable"></polygon></g><g id="els88i59jhtge"><rect x="408.56" y="136.76" height="2.7" style="fill: rgb(224, 224, 224); transform-origin: 408.56px 138.11px; transform: rotate(-60deg);" class="animable"></rect></g><g style="isolation: isolate; transform-origin: 409.52px 113.51px;" id="eleehzeo4qx4s" class="animable"><polygon points="379.27 76.2 381.3 75.02 381.19 117.01 379.15 118.19 379.27 76.2" style="fill: rgb(240, 240, 240); transform-origin: 380.225px 96.605px;" id="elfdyfaba2z8i" class="animable"></polygon><polygon points="379.15 118.19 381.19 117.01 439.76 150.83 437.73 152.01 379.15 118.19" style="fill: rgb(245, 245, 245); transform-origin: 409.455px 134.51px;" id="ela82m9wr3qvc" class="animable"></polygon><path d="M376.94,72.17l63.25,36.51L440.06,156l-63.25-36.51ZM437.73,152l.12-42L379.27,76.2l-.12,42L437.73,152" style="fill: rgb(224, 224, 224); transform-origin: 408.5px 114.085px;" id="elvv1fezcd6i" class="animable"></path><polygon points="376.94 72.17 378.98 70.98 442.23 107.5 440.19 108.68 376.94 72.17" style="fill: rgb(245, 245, 245); transform-origin: 409.585px 89.83px;" id="el5dt7lxr9frv" class="animable"></polygon><polygon points="440.19 108.68 442.23 107.5 442.09 154.86 440.06 156.04 440.19 108.68" style="fill: rgb(240, 240, 240); transform-origin: 441.145px 131.77px;" id="eleo9dwpeatn8" class="animable"></polygon></g><polygon points="407.39 92.44 407.27 134.43 409.61 135.77 409.73 93.78 407.39 92.44" style="fill: rgb(224, 224, 224); transform-origin: 408.5px 114.105px;" id="elcwzppj0eyzd" class="animable"></polygon><polygon points="409.73 93.78 409.73 93.78 409.61 135.77 411.64 134.59 411.75 94.95 409.73 93.78" style="fill: rgb(240, 240, 240); transform-origin: 410.68px 114.775px;" id="elav95t1nlcko" class="animable"></polygon><g id="elbhfzzyveib4"><rect x="408.56" y="91.76" height="2.7" style="fill: rgb(224, 224, 224); transform-origin: 408.56px 93.11px; transform: rotate(-60deg);" class="animable"></rect></g><g id="el8pmuoaej4cf"><polygon points="409.72 95.67 409.73 93.78 407.39 92.44 407.39 94.32 409.72 95.67 409.72 95.67" style="opacity: 0.2; transform-origin: 408.56px 94.055px;" class="animable"></polygon></g><g id="elzyk3t3sq5"><polygon points="409.72 95.67 411.36 94.73 409.73 93.78 409.73 93.78 409.72 95.67" style="opacity: 0.2; transform-origin: 410.54px 94.725px;" class="animable"></polygon></g><g id="eljft3dwebylj"><rect x="408.56" y="91.76" height="2.7" style="fill: rgb(224, 224, 224); transform-origin: 408.56px 93.11px; transform: rotate(-60deg);" class="animable"></rect></g><polygon points="302.04 121.2 304.07 120.02 303.95 162.01 301.92 163.19 302.04 121.2" style="fill: rgb(240, 240, 240); transform-origin: 302.995px 141.605px;" id="elhzamksva3e6" class="animable"></polygon><polygon points="301.92 163.19 303.95 162.01 362.52 195.83 360.49 197.01 301.92 163.19" style="fill: rgb(245, 245, 245); transform-origin: 332.22px 179.51px;" id="elv4fz7sfevtf" class="animable"></polygon><path d="M299.71,117.17,363,153.68l-.14,47.37-63.25-36.52ZM360.49,197l.12-42L302,121.2l-.12,42L360.49,197" style="fill: rgb(224, 224, 224); transform-origin: 331.305px 159.11px;" id="elu60ryj5xpp" class="animable"></path><polygon points="299.71 117.17 301.74 115.99 364.99 152.5 362.96 153.69 299.71 117.17" style="fill: rgb(245, 245, 245); transform-origin: 332.35px 134.84px;" id="elwb7fh78bldg" class="animable"></polygon><polygon points="362.96 153.69 364.99 152.5 364.85 199.87 362.82 201.04 362.96 153.69" style="fill: rgb(240, 240, 240); transform-origin: 363.905px 176.77px;" id="el2gxz1e77sxd" class="animable"></polygon><polygon points="302.04 76.2 304.07 75.02 303.95 117.01 301.92 118.19 302.04 76.2" style="fill: rgb(240, 240, 240); transform-origin: 302.995px 96.605px;" id="elsrtsxyo2pvi" class="animable"></polygon><polygon points="301.92 118.19 303.95 117.01 362.52 150.83 360.49 152.01 301.92 118.19" style="fill: rgb(245, 245, 245); transform-origin: 332.22px 134.51px;" id="el17nwlb0701i" class="animable"></polygon><path d="M299.71,72.17,363,108.68,362.82,156l-63.25-36.51ZM360.49,152l.12-42L302,76.2l-.12,42L360.49,152" style="fill: rgb(224, 224, 224); transform-origin: 331.285px 114.085px;" id="elyjjgk2apq1" class="animable"></path><polygon points="299.71 72.17 301.74 70.98 364.99 107.5 362.96 108.68 299.71 72.17" style="fill: rgb(245, 245, 245); transform-origin: 332.35px 89.83px;" id="eloa3hyfippch" class="animable"></polygon><polygon points="362.96 108.68 364.99 107.5 364.85 154.86 362.82 156.04 362.96 108.68" style="fill: rgb(240, 240, 240); transform-origin: 363.905px 131.77px;" id="elor2xatw1r1" class="animable"></polygon><polygon points="302.04 31.2 304.07 30.02 303.95 72.01 301.92 73.19 302.04 31.2" style="fill: rgb(240, 240, 240); transform-origin: 302.995px 51.605px;" id="elfgup97xeidj" class="animable"></polygon><polygon points="301.92 73.19 303.95 72.01 362.52 105.83 360.49 107.01 301.92 73.19" style="fill: rgb(245, 245, 245); transform-origin: 332.22px 89.51px;" id="elrjnncu4h5s" class="animable"></polygon><path d="M299.71,27.16,363,63.68,362.82,111,299.57,74.52ZM360.49,107l.12-42L302,31.2l-.12,42L360.49,107" style="fill: rgb(224, 224, 224); transform-origin: 331.285px 69.08px;" id="elh86gp7f1e7u" class="animable"></path><polygon points="299.71 27.16 301.74 25.98 364.99 62.5 362.96 63.68 299.71 27.16" style="fill: rgb(245, 245, 245); transform-origin: 332.35px 44.83px;" id="elfdk54at7ug" class="animable"></polygon><polygon points="362.96 63.68 364.99 62.5 364.85 109.86 362.82 111.04 362.96 63.68" style="fill: rgb(240, 240, 240); transform-origin: 363.905px 86.77px;" id="el6pwh1edum83" class="animable"></polygon></g><g id="freepik--Device--inject-76" class="animable" style="transform-origin: 114.771px 214.857px;"><path d="M177.45,67.11h0c-.78-2.73-6.31-7.91-11.82-7.8a4.72,4.72,0,0,0-1.55.3l-107,60.89a10.43,10.43,0,0,0-5.18,8.9V360.9c0,5.9,6.8,11.52,13.19,8.82l0,0a2.09,2.09,0,0,0,.41-.17l107-61a10.25,10.25,0,0,0,5.16-8.9V68.22A2.53,2.53,0,0,0,177.45,67.11Z" style="fill: rgb(69, 90, 100); transform-origin: 114.781px 214.862px;" id="elc4crnbywjz7" class="animable"></path><path d="M66.82,153.86a5.11,5.11,0,0,1,2.58-4.45l99.38-56.54a2.56,2.56,0,0,1,3.83,2.23V281.78a5.15,5.15,0,0,1-2.59,4.45L70.64,342.86a2.56,2.56,0,0,1-3.82-2.23Z" style="fill: rgb(72, 202, 228); transform-origin: 119.715px 217.862px;" id="el3epi8qt973j" class="animable"></path><g id="el9mca2bwio15"><path d="M66.82,153.86a5.11,5.11,0,0,1,2.58-4.45l99.38-56.54a2.56,2.56,0,0,1,3.83,2.23V281.78a5.15,5.15,0,0,1-2.59,4.45L70.64,342.86a2.56,2.56,0,0,1-3.82-2.23Z" style="opacity: 0.2; transform-origin: 119.715px 217.862px;" class="animable"></path></g><g id="eljz2j1shff8p"><path d="M51.88,129.39V360.9c0,5.9,6.8,11.52,13.19,8.82l0,0a2.54,2.54,0,0,1-3.41-2.39V135.79a10.3,10.3,0,0,1,1.72-5.66L53,124.9A10.13,10.13,0,0,0,51.88,129.39Z" style="opacity: 0.3; transform-origin: 58.475px 247.658px;" class="animable"></path></g><g id="el9nwqgktm79s"><path d="M165.64,59.3a4.72,4.72,0,0,0-1.55.3l-107,60.89A10.22,10.22,0,0,0,53,124.9l10.47,5.23a10.31,10.31,0,0,1,3.45-3.24L173.9,66a2.54,2.54,0,0,1,3.55,1.11h0C176.68,64.37,171.15,59.19,165.64,59.3Z" style="fill: rgb(255, 255, 255); opacity: 0.1; transform-origin: 115.225px 94.7141px;" class="animable"></path></g><path d="M132.9,104.23c.75-.44,1.38-.1,1.38.76a3,3,0,0,1-1.37,2.37l-21,12.13c-.75.43-1.36.07-1.36-.8a3,3,0,0,1,1.35-2.34Z" style="fill: rgb(38, 50, 56); transform-origin: 122.415px 111.855px;" id="elyv0c4pfut9" class="animable"></path><path d="M106.51,119.46c.75-.43,1.36-.08,1.36.78a3,3,0,0,1-1.35,2.36c-.75.43-1.38.08-1.38-.79A3,3,0,0,1,106.51,119.46Z" style="fill: rgb(38, 50, 56); transform-origin: 106.505px 121.03px;" id="elfld2xmhhu5g" class="animable"></path><path d="M120,102.46c1.5-.86,2.71-.17,2.72,1.55a6,6,0,0,1-2.7,4.72c-1.5.87-2.75.16-2.75-1.57A6,6,0,0,1,120,102.46Z" style="fill: rgb(38, 50, 56); transform-origin: 119.995px 105.596px;" id="el84br86zix2j" class="animable"></path><path d="M120,320.41c3.06-1.77,5.53-.36,5.54,3.16a12.25,12.25,0,0,1-5.5,9.6c-3.06,1.77-5.6.32-5.61-3.19A12.23,12.23,0,0,1,120,320.41Z" style="fill: rgb(38, 50, 56); transform-origin: 119.985px 326.786px;" id="eldpdg7xu05bj" class="animable"></path></g><g id="freepik--Screen--inject-76" class="animable" style="transform-origin: 140.18px 240.929px;"><path d="M197,106.82h0c-.71-2.48-5.73-7.19-10.73-7.09a4.37,4.37,0,0,0-1.41.28L87.76,155.28a9.41,9.41,0,0,0-4.69,8.08V373.49c0,5.36,6.17,10.47,12,8l0,0a2,2,0,0,0,.38-.15L192.6,326a9.3,9.3,0,0,0,4.69-8.08v-210A2.25,2.25,0,0,0,197,106.82Z" style="fill: rgb(72, 202, 228); transform-origin: 140.18px 240.929px;" id="elion56ybzxp" class="animable"></path><g id="elmio2mqsl1x"><path d="M83.07,163.36V373.49c0,5.36,6.17,10.47,12,8l0,0A2.31,2.31,0,0,1,92,379.3V169.16A9.32,9.32,0,0,1,93.54,164L84,159.28A9.27,9.27,0,0,0,83.07,163.36Z" style="fill: rgb(255, 255, 255); opacity: 0.2; transform-origin: 89.07px 270.705px;" class="animable"></path></g><g id="elniygq2y5ddg"><path d="M186.32,99.73a4.37,4.37,0,0,0-1.41.28L87.76,155.28a9.28,9.28,0,0,0-3.73,4L93.54,164a9.2,9.2,0,0,1,3.13-2.94l97.15-55.27a2.31,2.31,0,0,1,3.22,1h0C196.34,104.34,191.32,99.63,186.32,99.73Z" style="fill: rgb(255, 255, 255); opacity: 0.4; transform-origin: 140.535px 131.864px;" class="animable"></path></g><g id="el8qotu2xdo1"><path d="M197,106.82h0c-.71-2.47-5.73-7.18-10.73-7.08a4.37,4.37,0,0,0-1.41.28L87.76,155.28a9.41,9.41,0,0,0-4.69,8.08V373.49c0,5.36,6.17,10.47,12,8l0,0a2,2,0,0,0,.38-.15L192.6,326a9.3,9.3,0,0,0,4.69-8.08v-210A2.25,2.25,0,0,0,197,106.82Z" style="fill: rgb(255, 255, 255); opacity: 0.3; transform-origin: 140.18px 240.934px;" class="animable"></path></g><g id="elaxox8jltuwr"><g style="opacity: 0.4; transform-origin: 145.155px 217.864px;" class="animable"><path d="M182,145.43c4.14-2.39,7.51-.47,7.52,4.29l.24,84.95a16.46,16.46,0,0,1-7.47,12.94L108.31,290.3c-4.14,2.39-7.51.46-7.52-4.29l-.24-84.95A16.47,16.47,0,0,1,108,188.12Z" style="fill: rgb(255, 255, 255); transform-origin: 145.155px 217.864px;" id="elp4kmshfrtdr" class="animable"></path></g></g><path d="M154.78,244.53c-.12.14-.25.26-.37.39C154.53,244.79,154.66,244.67,154.78,244.53Z" style="fill: none; transform-origin: 154.595px 244.725px;" id="elcyo4h0do2g5" class="animable"></path><path d="M154.87,244.43A51,51,0,0,0,164.11,230l.27-.65-.27.63A51,51,0,0,1,154.87,244.43Z" style="fill: none; transform-origin: 159.625px 236.89px;" id="elm3wivv2uuji" class="animable"></path><path d="M184.33,197l.67-.62a5.22,5.22,0,0,0,1.54-2.41,5.58,5.58,0,0,1-1.56,2.43Z" style="fill: none; transform-origin: 185.435px 195.485px;" id="eldzzaeqeo0np" class="animable"></path><path d="M167.81,210.31l-.23.16Z" style="fill: none; transform-origin: 167.695px 210.39px;" id="elgq961etwxyh" class="animable"></path><path d="M165.63,209.85c.17.88.89,1.13,1.69.76C166.52,211,165.8,210.73,165.63,209.85Z" style="fill: none; transform-origin: 166.475px 210.317px;" id="el3ype04mxld4" class="animable"></path><path d="M165.63,209.85c.17.88.89,1.13,1.69.76l.26-.14.23-.16a4.07,4.07,0,0,0,.88-1l3.12-4.77A12.44,12.44,0,0,0,174,198l-.06-23.63-8.39,4.84.09,30.23A2.54,2.54,0,0,0,165.63,209.85Z" style="fill: rgb(72, 202, 228); transform-origin: 169.775px 192.573px;" id="elzb3opxn898" class="animable"></path><g id="elgwbdim1kj6"><path d="M165.63,209.85c.17.88.89,1.13,1.69.76l.26-.14.23-.16a4.07,4.07,0,0,0,.88-1l3.12-4.77A12.44,12.44,0,0,0,174,198l-.06-23.63-8.39,4.84.09,30.23A2.54,2.54,0,0,0,165.63,209.85Z" style="opacity: 0.3; transform-origin: 169.775px 192.573px;" class="animable"></path></g><path d="M186.63,193.6q0,.21-.09.36a5.22,5.22,0,0,1-1.54,2.41l-.67.62-.62.57-.66.66c-.21.21-.42.41-.62.62s-.45.49-.68.74-.41.44-.61.67l-.69.82c-.2.23-.4.46-.6.71l-.67.86c-.21.27-.42.51-.62.79s-.45.61-.68.92-.41.55-.62.85l-.69,1-.61.88-.68,1.06c-.2.33-.41.64-.61,1s-.46.74-.68,1.11l-.63,1c-.24.41-.48.85-.73,1.27s-.39.66-.58,1-.53,1-.79,1.45c-.17.32-.35.63-.52,1l-.86,1.65c-.15.3-.31.58-.46.89l-.86,1.75c-.22.44-.43.87-.65,1.33-.37.78-.75,1.58-1.13,2.41l-.2.42c-.37.82-.75,1.66-1.13,2.52-.17.37-.34.77-.5,1.16l-.57,1.29-.27.65a51,51,0,0,1-9.24,14.41l-.09.1c-.12.14-.25.26-.37.39a38.53,38.53,0,0,1-6.84,5.81c-.47.3-.92.57-1.37.83l-2.12,1.23q-4.61,2.66-9.2,4.89t-9.15,4c-2,.8-4,1.53-6,2.19L116.2,265l-1,.34a38.46,38.46,0,0,0-.47,6.12l5-1.64a131.26,131.26,0,0,0,24.39-11.1l2.12-1.22c7.25-4.19,14-12.31,17.92-21.56a164,164,0,0,1,8.48-17.42l-1.28,20.2,11.24-6.49c.53-7.12,1.73-21.22,3.59-30.87A13.73,13.73,0,0,0,186.63,193.6Z" style="fill: rgb(69, 90, 100); transform-origin: 150.861px 232.53px;" id="eln45u84qzjal" class="animable"></path><path d="M125.73,261.7q4.54-1.79,9.15-4t9.2-4.89l2.12-1.23c.45-.26.9-.53,1.37-.83a38.53,38.53,0,0,0,6.84-5.81c.12-.13.25-.25.37-.39l.09-.1A51,51,0,0,0,164.11,230l.27-.63.57-1.29c.16-.39.33-.79.5-1.16.38-.86.76-1.7,1.13-2.52l.2-.42c.38-.83.76-1.63,1.13-2.41.22-.46.43-.89.65-1.33l.86-1.75c.15-.31.31-.59.46-.89l.86-1.65c.17-.33.35-.64.52-1,.26-.49.53-1,.79-1.45s.39-.68.58-1,.49-.86.73-1.27l.63-1c.22-.37.45-.75.68-1.11s.41-.64.61-1l.68-1.06.61-.88.69-1c.21-.3.42-.57.62-.85s.45-.63.68-.92.41-.52.62-.79l.67-.86c.2-.25.4-.48.6-.71l.69-.82c.2-.23.41-.44.61-.67s.45-.5.68-.74.41-.41.62-.62l.66-.66.62-.57.65-.6a5.58,5.58,0,0,0,1.56-2.43q0-.15.09-.36l0-.07c1.8-8.48-4.22-11.26-5.45-19.19a.48.48,0,0,0,0-.36,21.48,21.48,0,0,1,.08-6l-5.45,3.15a4.13,4.13,0,0,0-1.88,3.26L174,198a12.44,12.44,0,0,1-2.15,6.56l-3.12,4.77a4.07,4.07,0,0,1-.88,1l-.23.16-.26.14c-.8.37-1.52.12-1.69-.76a2.54,2.54,0,0,1,0-.41l-.09-30.23c0-1.2-.86-1.68-1.9-1.08l-15,8.66c-.9,16.46-3.66,41.47-9.83,49.62a21.49,21.49,0,0,1-6.67,5.54c-1.26.73-2.56,1.4-3.86,2.06s-2.58,1.32-3.81,2c-3.44,2-6.45,4.38-8,8.45a30.46,30.46,0,0,0-1.72,9.19c0,1.08.58,1.65,1.47,1.35l3.49-1.14C121.69,263.23,123.71,262.5,125.73,261.7Z" style="fill: rgb(72, 202, 228); transform-origin: 150.877px 216.53px;" id="eltdjzguwujm" class="animable"></path><path d="M171,243.19l11.23-6.48c0-.09.1-1.71.3-4.45l-11.24,6.49Z" style="fill: rgb(55, 71, 79); transform-origin: 176.765px 237.725px;" id="elnnllkw28yuo" class="animable"></path><path d="M184.41,120c3.74-2.16,6.78-.43,6.79,3.86a14.89,14.89,0,0,1-6.74,11.69l-78.6,45.38c-3.74,2.16-6.79.42-6.8-3.87a14.87,14.87,0,0,1,6.75-11.68Z" style="fill: rgb(255, 255, 255); transform-origin: 145.13px 150.464px;" id="elc0taahqst4d" class="animable"></path><polygon points="190.31 302.44 169.99 314.16 170 317.27 190.31 305.54 190.31 302.44" style="fill: rgb(255, 255, 255); transform-origin: 180.15px 309.855px;" id="elpfm71g2zfgk" class="animable"></polygon><polygon points="163.68 314.65 190.3 299.28 190.29 296.17 163.67 311.54 163.68 314.65" style="fill: rgb(255, 255, 255); transform-origin: 176.985px 305.41px;" id="elnxsvkvbrko8" class="animable"></polygon><polygon points="153.66 314.16 190.28 293.02 190.27 289.91 153.65 311.06 153.66 314.16" style="fill: rgb(255, 255, 255); transform-origin: 171.965px 302.035px;" id="elt0yl0f14ev9" class="animable"></polygon><polygon points="168.74 284.96 167.09 282.08 165.45 286.86 161.78 289.6 164.45 291.04 163.83 295.61 167.11 291.72 170.4 291.81 169.76 287.97 172.42 283.46 168.74 284.96" style="fill: rgb(72, 202, 228); transform-origin: 167.1px 288.845px;" id="el8l5y6o9b93j" class="animable"></polygon><polygon points="173.37 260.68 102.88 301.38 102.89 307.12 173.39 266.43 173.37 260.68" style="fill: rgb(255, 255, 255); transform-origin: 138.135px 283.9px;" id="elki4x9lqgp4" class="animable"></polygon><polygon points="146.97 327.45 146.98 330.56 165 320.16 164.99 317.05 146.97 327.45" style="fill: rgb(255, 255, 255); transform-origin: 155.985px 323.805px;" id="elmqwv4h0k1k" class="animable"></polygon><polygon points="130.63 327.45 148.65 317.05 148.64 313.94 130.63 324.35 130.63 327.45" style="fill: rgb(255, 255, 255); transform-origin: 139.64px 320.695px;" id="el9dd4faoc0ka" class="animable"></polygon><polygon points="103.03 352.83 103.03 355.94 141.06 333.98 141.06 330.87 103.03 352.83" style="fill: rgb(255, 255, 255); transform-origin: 122.045px 343.405px;" id="elhtovatw0npt" class="animable"></polygon><polygon points="103.04 359.09 103.05 362.2 124.8 349.64 124.8 346.53 103.04 359.09" style="fill: rgb(255, 255, 255); transform-origin: 113.92px 354.365px;" id="el9pde6jpmrh5" class="animable"></polygon><polygon points="158.87 314.31 103.01 346.56 103.02 349.67 158.88 317.42 158.87 314.31" style="fill: rgb(255, 255, 255); transform-origin: 130.945px 331.99px;" id="elwwnh04cj16s" class="animable"></polygon><polygon points="124.74 327.75 102.99 340.3 103 343.41 124.75 330.85 124.74 327.75" style="fill: rgb(255, 255, 255); transform-origin: 113.87px 335.58px;" id="el2v33fhe5non" class="animable"></polygon><polygon points="105 329.58 108.28 325.69 111.57 325.78 110.93 321.94 113.58 317.43 109.9 318.93 108.25 316.05 106.62 320.83 102.94 323.57 105.61 325.01 105 329.58" style="fill: rgb(72, 202, 228); transform-origin: 108.26px 322.815px;" id="elooy49i6lgwe" class="animable"></polygon><polygon points="152.4 300.22 155.69 300.31 155.06 296.46 157.71 291.95 154.03 293.46 152.37 290.58 150.74 295.35 147.07 298.09 149.74 299.53 149.12 304.1 152.4 300.22" style="fill: rgb(72, 202, 228); transform-origin: 152.39px 297.34px;" id="elsz4ugz389rs" class="animable"></polygon><polygon points="124.61 310.44 122.96 307.56 121.33 312.34 117.65 315.07 120.32 316.51 119.71 321.08 122.99 317.2 126.28 317.29 125.64 313.44 128.29 308.93 124.61 310.44" style="fill: rgb(72, 202, 228); transform-origin: 122.97px 314.32px;" id="elrhndq4x7uae" class="animable"></polygon><polygon points="157.22 280 102.91 311.36 102.92 314.94 157.23 283.58 157.22 280" style="fill: rgb(255, 255, 255); transform-origin: 130.07px 297.47px;" id="el6es3yq4r5ot" class="animable"></polygon><polygon points="139.32 301.95 137.67 299.07 136.03 303.85 132.36 306.58 135.03 308.02 134.41 312.59 137.7 308.71 140.99 308.8 140.34 304.95 143 300.44 139.32 301.95" style="fill: rgb(72, 202, 228); transform-origin: 137.68px 305.83px;" id="elfsi6iuyubxm" class="animable"></polygon><g id="elj6jir2uege8"><polygon points="105 329.58 108.28 325.69 111.57 325.78 110.93 321.94 113.58 317.43 109.9 318.93 108.25 316.05 106.62 320.83 102.94 323.57 105.61 325.01 105 329.58" style="opacity: 0.2; transform-origin: 108.26px 322.815px;" class="animable"></polygon></g><g id="elgiflt6mqs9d"><polygon points="152.4 300.22 155.69 300.31 155.06 296.46 157.71 291.95 154.03 293.46 152.37 290.58 150.74 295.35 147.07 298.09 149.74 299.53 149.12 304.1 152.4 300.22" style="opacity: 0.2; transform-origin: 152.39px 297.34px;" class="animable"></polygon></g><g id="ele5r8g1ltc6v"><polygon points="124.61 310.44 122.96 307.56 121.33 312.34 117.65 315.07 120.32 316.51 119.71 321.08 122.99 317.2 126.28 317.29 125.64 313.44 128.29 308.93 124.61 310.44" style="opacity: 0.2; transform-origin: 122.97px 314.32px;" class="animable"></polygon></g><g id="elivi461h7a9p"><polygon points="139.32 301.95 137.67 299.07 136.03 303.85 132.36 306.58 135.03 308.02 134.41 312.59 137.7 308.71 140.99 308.8 140.34 304.95 143 300.44 139.32 301.95" style="opacity: 0.2; transform-origin: 137.68px 305.83px;" class="animable"></polygon></g><polygon points="145.48 203.67 140.75 209.74 142.9 214.4 137.39 218.4 137.27 224.87 131.94 226.12 129.57 233.26 125.34 231.54 121.13 238.13 118.73 233.75 113.41 238.64 113.26 232.34 107.74 234.7 109.86 227.57 105.11 226.98 109.13 220.26 105.96 216.82 111.2 211.67 110.16 205.99 115.7 203.3 116.97 196.34 121.86 196.58 125.22 189.56 128.61 192.68 133.48 186.81 134.79 192.28 140.33 188.57 139.32 195.44 144.57 194.53 141.43 201.61 145.48 203.67" style="fill: rgb(72, 202, 228); transform-origin: 125.295px 212.725px;" id="elv5kv3dp44p9" class="animable"></polygon><g id="el97vjqep53pv"><g style="opacity: 0.1; transform-origin: 125.295px 212.725px;" class="animable"><polygon points="145.48 203.67 140.75 209.74 142.9 214.4 137.39 218.4 137.27 224.87 131.94 226.12 129.57 233.26 125.34 231.54 121.13 238.13 118.73 233.75 113.41 238.64 113.26 232.34 107.74 234.7 109.86 227.57 105.11 226.98 109.13 220.26 105.96 216.82 111.2 211.67 110.16 205.99 115.7 203.3 116.97 196.34 121.86 196.58 125.22 189.56 128.61 192.68 133.48 186.81 134.79 192.28 140.33 188.57 139.32 195.44 144.57 194.53 141.43 201.61 145.48 203.67" id="els6dy0w15ls" class="animable" style="transform-origin: 125.295px 212.725px;"></polygon></g></g><path d="M123.3,201.84c1.82-1.05,2.81-.38,2.82,1.78l0,7a5.55,5.55,0,0,1-2.8,5c-1.82,1-2.81.38-2.82-1.78l0-7A5.59,5.59,0,0,1,123.3,201.84Zm1,10,0-7.3c0-1-.37-1.13-1-.79a2,2,0,0,0-1,1.89l0,7.3c0,1,.38,1.13,1,.79a2,2,0,0,0,1-1.89" style="fill: rgb(255, 255, 255); transform-origin: 123.31px 208.719px;" id="elbe2c685zbhr" class="animable"></path><path d="M118.22,219.49c2.45-1.41,4.25-.51,4.26,2.12a8.72,8.72,0,0,1-4.23,7c-2.45,1.41-4.26.52-4.26-2.11A8.73,8.73,0,0,1,118.22,219.49Zm0,7.08a4.45,4.45,0,0,0,2.06-3.7c0-1.52-.92-2-2.07-1.32a4.45,4.45,0,0,0-2.06,3.7c0,1.52.91,2,2.07,1.32" style="fill: rgb(255, 255, 255); transform-origin: 118.235px 224.051px;" id="elenfyd80ymyb" class="animable"></path><path d="M119.11,204.41v1.94l-3.23,1.86-.14,3.32,0,0a3.74,3.74,0,0,1,1.6-1.91c1.36-.79,2.05-.09,2.06,1.9v3a5.5,5.5,0,0,1-2.75,5c-1.82,1.05-2.76.36-2.77-1.81v-1.12l1.75-1v1.26c0,1,.38,1.1,1,.76a2,2,0,0,0,1-1.87v-3c0-1-.37-1.12-1-.78a2,2,0,0,0-1,1.88v.41l-1.74,1,.31-8Z" style="fill: rgb(255, 255, 255); transform-origin: 116.642px 212.206px;" id="el980bsuosud6" class="animable"></path><polygon points="133.63 196.03 134.72 195.4 130.12 211.61 129.02 212.24 133.63 196.03" style="fill: rgb(255, 255, 255); transform-origin: 131.87px 203.82px;" id="el5yj2l53vik" class="animable"></polygon><g style="isolation: isolate; transform-origin: 133.621px 210.588px;" id="elxlbsm1t70i" class="animable"><polygon points="136.62 209.05 136.62 210.97 132.79 213.18 132.79 215.11 136.17 213.16 136.18 215.09 132.8 217.03 132.81 220.05 130.65 221.29 130.62 212.51 136.62 209.05" style="fill: rgb(255, 255, 255); transform-origin: 133.62px 215.17px;" id="eltcfrfvgz54" class="animable"></polygon><path d="M134.84,200.2c1.16-.67,1.78-.26,1.78,1.13l0,4.45a3.52,3.52,0,0,1-1.78,3.19c-1.16.67-1.79.25-1.79-1.13v-4.45A3.48,3.48,0,0,1,134.84,200.2Zm.62,6.35v-4.64c0-.59-.24-.71-.61-.5a1.24,1.24,0,0,0-.6,1.2v4.64c0,.6.22.72.61.5a1.27,1.27,0,0,0,.6-1.2" style="fill: rgb(255, 255, 255); transform-origin: 134.835px 204.584px;" id="el16k3nfsw3zk" class="animable"></path></g><path d="M130.79,204.2a3.52,3.52,0,0,1-1.78,3.19c-1.16.67-1.78.26-1.79-1.14v-4.44a3.52,3.52,0,0,1,1.78-3.19c1.16-.67,1.78-.26,1.78,1.13Zm-2.39,1.47c0,.6.22.73.61.5a1.27,1.27,0,0,0,.6-1.2v-4.63c0-.6-.24-.72-.61-.5a1.23,1.23,0,0,0-.6,1.2v4.63" style="fill: rgb(255, 255, 255); transform-origin: 129.005px 203.005px;" id="elpmuemuehzbj" class="animable"></path><polygon points="129.6 213.1 129.61 215.02 125.78 217.23 125.78 219.16 129.15 217.22 129.16 219.13 125.79 221.08 125.8 224.09 123.63 225.34 123.61 216.56 129.6 213.1" style="fill: rgb(255, 255, 255); transform-origin: 126.61px 219.22px;" id="elmbz10klmft" class="animable"></polygon><g id="elbrrrc1hfbd"><path d="M188.76,163.36h0a9.07,9.07,0,0,1,.55-3.12A9.07,9.07,0,0,0,188.76,163.36Z" style="fill: rgb(255, 255, 255); opacity: 0.3; transform-origin: 189.035px 161.8px;" class="animable"></path></g></g><g id="freepik--Character--inject-76" class="animable" style="transform-origin: 308.15px 284.853px;"><path d="M318.8,351.38l58.47-34.2A8.89,8.89,0,0,0,381,306.1L378,299h0l1.59,3.81a8.07,8.07,0,0,1-3.48,10.12l-63.58,36A4.27,4.27,0,0,0,318.8,351.38Z" style="fill: rgb(55, 71, 79); transform-origin: 347.104px 325.489px;" id="eli37ljyoghr" class="animable"></path><path d="M376.77,280.28l-5.22,3.14L378,299h0l3,7.09a8.89,8.89,0,0,1-3.71,11.08l-58.47,34.2a4.27,4.27,0,0,1-6.24-2.45l-4.14,2.34-78.5-45.37-2.54,26.59,4.12.61.31-1.8a4.5,4.5,0,0,1,6.68-3.15l57.84,33.3a14.21,14.21,0,0,1,7.05,13.66l-.2,2.06h4.17l.85-5.05a14.21,14.21,0,0,1,6.92-9.94L382,323.68a5.32,5.32,0,0,1,7.46,2.32l6.33,13.29s2.07,1.11,2.88-.89Z" style="fill: rgb(69, 90, 100); transform-origin: 313.035px 328.72px;" id="elosukdoznjt" class="animable"></path><path d="M302.43,214.74,239.6,263.4a17.71,17.71,0,0,0-6.8,12.35l-7.05,73.84a2.39,2.39,0,0,0,2.92.26l12.52-74.13a8.88,8.88,0,0,1,4.19-6.14l55.53-33.27C308.16,232,309.44,216.68,302.43,214.74Z" style="fill: rgb(69, 90, 100); transform-origin: 266.409px 282.485px;" id="el4l62uevc4bm" class="animable"></path><g id="elp659rleumwa"><path d="M302.43,214.74,239.6,263.4a17.71,17.71,0,0,0-6.8,12.35l-7.05,73.84a2.39,2.39,0,0,0,2.92.26l12.52-74.13a8.88,8.88,0,0,1,4.19-6.14l55.53-33.27C308.16,232,309.44,216.68,302.43,214.74Z" style="fill: rgb(255, 255, 255); opacity: 0.3; transform-origin: 266.409px 282.485px;" class="animable"></path></g><path d="M374.39,298.75h0a3.42,3.42,0,0,0-1.52-1.77l-63-36.38a8.77,8.77,0,0,0-8.78,0L238.56,297a3.46,3.46,0,0,0-1.51,1.8h0c-1.8,3.31-2.4,10.84.1,15.64a4,4,0,0,0,1.43,1.52l63,36.37a8.75,8.75,0,0,0,8.77,0l62.54-36.35a3.42,3.42,0,0,0,1.41-1.54h0C376.79,309.59,376.19,302.06,374.39,298.75Z" style="fill: rgb(72, 202, 228); transform-origin: 305.721px 306.465px;" id="el97xkre4l0bh" class="animable"></path><g id="elc2izah70neh"><path d="M374.39,298.75h0a3.42,3.42,0,0,0-1.52-1.77l-63-36.38a8.77,8.77,0,0,0-8.78,0L238.56,297a3.46,3.46,0,0,0-1.51,1.8h0c-1.8,3.31-2.4,10.84.1,15.64a4,4,0,0,0,1.43,1.52l63,36.37a8.75,8.75,0,0,0,8.77,0l62.54-36.35a3.42,3.42,0,0,0,1.41-1.54h0C376.79,309.59,376.19,302.06,374.39,298.75Z" style="fill: rgb(255, 255, 255); opacity: 0.3; transform-origin: 305.721px 306.465px;" class="animable"></path></g><g id="el85byt37bwl"><path d="M374.39,298.75h0a3.5,3.5,0,0,1-1.51,4.28l-62.54,36.35a8.75,8.75,0,0,1-8.77,0l-63-36.37a3.48,3.48,0,0,1-1.52-4.26h0c-1.8,3.31-2.4,10.84.1,15.64a4,4,0,0,0,1.43,1.52l63,36.37a8.75,8.75,0,0,0,8.77,0l62.54-36.35a3.42,3.42,0,0,0,1.41-1.54h0C376.79,309.59,376.19,302.06,374.39,298.75Z" style="opacity: 0.3; transform-origin: 305.721px 326.104px;" class="animable"></path></g><path d="M305,202.05h0l0,0Z" style="fill: rgb(255, 168, 167); transform-origin: 305px 202.05px;" id="el584k8wg5yg3" class="animable"></path><path d="M379.6,229.63,320,195.25a3.76,3.76,0,0,0-1.74-.49H318c-5.44,0-9.7,3.3-12.87,7.1a1,1,0,0,0-.13.16l0,0a3.63,3.63,0,0,0-.69,1.34L287.21,267a8.46,8.46,0,0,0,3.94,9.52L350.71,311a3.62,3.62,0,0,0,2.1.47v0c6.81-.7,10.83-4.92,12.84-7.14a3.7,3.7,0,0,0,.81-1.5l17.08-63.64A8.48,8.48,0,0,0,379.6,229.63Z" style="fill: rgb(72, 202, 228); transform-origin: 335.378px 253.121px;" id="eljh6t9kcax8" class="animable"></path><g id="el80kfxbgqm3x"><path d="M379.6,229.63,320,195.25a3.76,3.76,0,0,0-1.74-.49H318c-5.44,0-9.7,3.3-12.87,7.1a1,1,0,0,0-.13.16l0,0a3.63,3.63,0,0,0-.69,1.34L287.21,267a8.46,8.46,0,0,0,3.94,9.52L350.71,311a3.62,3.62,0,0,0,2.1.47v0c6.81-.7,10.83-4.92,12.84-7.14a3.7,3.7,0,0,0,.81-1.5l17.08-63.64A8.48,8.48,0,0,0,379.6,229.63Z" style="fill: rgb(255, 255, 255); opacity: 0.2; transform-origin: 335.378px 253.121px;" class="animable"></path></g><g id="ellssrles3o1"><path d="M379.6,229.63,320,195.25a3.76,3.76,0,0,0-1.74-.49H318c-5.44,0-9.7,3.3-12.87,7.1a3.62,3.62,0,0,1,4.48-.68l59.56,34.39a8.4,8.4,0,0,1,3.69,4.36l10.4-6A8.51,8.51,0,0,0,379.6,229.63Z" style="opacity: 0.1; transform-origin: 344.195px 217.345px;" class="animable"></path></g><g id="elqsz5csyo22"><path d="M372.86,239.94a8.4,8.4,0,0,1,.25,5.16L356,308.75a3.63,3.63,0,0,1-3.22,2.67v0c6.81-.7,10.83-4.92,12.84-7.14a3.7,3.7,0,0,0,.81-1.5l17.08-63.64a8.4,8.4,0,0,0-.28-5.23Z" style="opacity: 0.2; transform-origin: 368.29px 272.665px;" class="animable"></path></g><path d="M272.31,373.22l2.54,5c3.6-3.33,4.25-6,4.25-6-1.16-4.12-2.52-8.31-3.19-10.35-.35,2.84-2.28,5.28-3.1,8.05A13.42,13.42,0,0,0,272.31,373.22Z" style="fill: rgb(72, 202, 228); transform-origin: 275.705px 370.045px;" id="elq3dn8lp63q" class="animable"></path><g id="elo1kzds8th5g"><path d="M272.31,373.22l2.54,5c3.6-3.33,4.25-6,4.25-6-1.16-4.12-2.52-8.31-3.19-10.35-.35,2.84-2.28,5.28-3.1,8.05A13.42,13.42,0,0,0,272.31,373.22Z" style="opacity: 0.2; transform-origin: 275.705px 370.045px;" class="animable"></path></g><path d="M272.43,378.38l2.42-.12-2.54-5C272.23,374.92,272.37,376.66,272.43,378.38Z" style="fill: rgb(72, 202, 228); transform-origin: 273.568px 375.82px;" id="elzlqvjuu3mps" class="animable"></path><path d="M274.27,355.94a22.33,22.33,0,0,0-3-3.51,12.17,12.17,0,0,1,0,6.74c-.76,2.92-2.13,5.66-2.82,8.61-.83,3.58-.64,7.43-2.16,10.78a11.55,11.55,0,0,1-8.08,6.45,5.1,5.1,0,0,1-3.84-.47,2.77,2.77,0,0,1-1.06-1.43,25.11,25.11,0,0,1-2.76,4.51c-1.2,1.55-2.69,3.25-2.36,5.18a4.17,4.17,0,0,0,3.38,3.09,10.8,10.8,0,0,0,4.81-.4,30,30,0,0,0,9.62-3.92,14.38,14.38,0,0,0,6.1-8.19,18.58,18.58,0,0,0,.38-5c-.06-1.72-.2-3.46-.12-5.16a13.42,13.42,0,0,1,.5-3.27c.82-2.77,2.75-5.21,3.1-8.05,0-.15,0-.3.06-.45A9.23,9.23,0,0,0,274.27,355.94Z" style="fill: rgb(72, 202, 228); transform-origin: 262.082px 374.215px;" id="elyiwh41am1pm" class="animable"></path><g id="el5xqrv1iqqyn"><path d="M274.27,355.94a22.33,22.33,0,0,0-3-3.51,12.17,12.17,0,0,1,0,6.74c-.76,2.92-2.13,5.66-2.82,8.61-.83,3.58-.64,7.43-2.16,10.78a11.55,11.55,0,0,1-8.08,6.45,5.1,5.1,0,0,1-3.84-.47,2.77,2.77,0,0,1-1.06-1.43,25.11,25.11,0,0,1-2.76,4.51c-1.2,1.55-2.69,3.25-2.36,5.18a4.17,4.17,0,0,0,3.38,3.09,10.8,10.8,0,0,0,4.81-.4,30,30,0,0,0,9.62-3.92,14.38,14.38,0,0,0,6.1-8.19,18.58,18.58,0,0,0,.38-5c-.06-1.72-.2-3.46-.12-5.16a13.42,13.42,0,0,1,.5-3.27c.82-2.77,2.75-5.21,3.1-8.05,0-.15,0-.3.06-.45A9.23,9.23,0,0,0,274.27,355.94Z" style="opacity: 0.1; transform-origin: 262.082px 374.215px;" class="animable"></path></g><path d="M258.16,385a11.55,11.55,0,0,0,8.08-6.45c1.52-3.35,1.33-7.2,2.16-10.78.69-2.95,2.06-5.69,2.82-8.61a12.17,12.17,0,0,0,0-6.74l-.87-.86c-4.34,2.25-9.28,4.1-13.23,7a94.53,94.53,0,0,1-1,15.14,35.46,35.46,0,0,1-2.94,9.42,2.77,2.77,0,0,0,1.06,1.43A5.1,5.1,0,0,0,258.16,385Z" style="fill: rgb(242, 143, 143); transform-origin: 262.438px 368.381px;" id="el065odhoahnjh" class="animable"></path><g id="el29hpyrk76c5"><path d="M272.43,378.38l2.42-.12-2.54-5C272.23,374.92,272.37,376.66,272.43,378.38Z" style="opacity: 0.3; transform-origin: 273.568px 375.82px;" class="animable"></path></g><path d="M243.42,371.64c-.72,4.2-3.92,12.73-3.92,12.73s15,.61,15.37-.08l4.42-6.84Z" style="fill: rgb(255, 168, 167); transform-origin: 249.395px 378.129px;" id="elc2uea0dzyi7" class="animable"></path><path d="M288.45,272l-38.36,21.37a19,19,0,0,0-9.44,20.08l7.44,40.1L242,372.9c5.26,7.07,17.36,7.43,17.36,7.43,6.75-13.54,11.7-19.28,15.53-30.62s6.38-19.16,6.38-19.16l31.87-8.71a37.75,37.75,0,0,0,27.6-32.12c.55-4.82.57-8.11.57-8.11Z" style="fill: rgb(38, 50, 56); transform-origin: 290.82px 326.165px;" id="eljwyk5nwsccr" class="animable"></path><g id="el15fxjghzlwv"><path d="M285.84,284.58a18.18,18.18,0,0,0,4.3,11.69L266,311.37a19.45,19.45,0,0,0-8.29,10.8l-9.58,31.33,8.64-34.89a15.8,15.8,0,0,1,7-9.65l22.1-13.6C283.32,289,285.84,284.58,285.84,284.58Z" style="opacity: 0.2; transform-origin: 269.135px 319.04px;" class="animable"></path></g><path d="M247.65,403.81l.36,5.64c4.62-1.64,6.27-3.86,6.27-3.86.55-4.24.95-8.63,1.13-10.76-1.43,2.47-4.17,3.95-6,6.18A13.29,13.29,0,0,0,247.65,403.81Z" style="fill: rgb(72, 202, 228); transform-origin: 251.53px 402.14px;" id="elqdcd4pnfzno" class="animable"></path><g id="eli4rczxe0dt"><path d="M247.65,403.81l.36,5.64c4.62-1.64,6.27-3.86,6.27-3.86.55-4.24.95-8.63,1.13-10.76-1.43,2.47-4.17,3.95-6,6.18A13.29,13.29,0,0,0,247.65,403.81Z" style="opacity: 0.1; transform-origin: 251.53px 402.14px;" class="animable"></path></g><path d="M245.73,408.61l2.28.84-.36-5.64C246.92,405.35,246.36,407,245.73,408.61Z" style="fill: rgb(72, 202, 228); transform-origin: 246.87px 406.63px;" id="elw6j0mmf39v" class="animable"></path><g id="elatloboecjia"><path d="M245.73,408.61l2.28.84-.36-5.64C246.92,405.35,246.36,407,245.73,408.61Z" style="opacity: 0.2; transform-origin: 246.87px 406.63px;" class="animable"></path></g><path d="M256.25,388.7a22.11,22.11,0,0,0-1.38-4.41,12.39,12.39,0,0,1-2.69,6.18c-1.85,2.39-4.19,4.37-6,6.81-2.17,3-3.51,6.58-6.22,9.06a11.55,11.55,0,0,1-10,2.75,5.1,5.1,0,0,1-3.35-1.94,2.76,2.76,0,0,1-.41-1.73,25.11,25.11,0,0,1-4.31,3.06c-1.71.95-3.75,1.93-4.21,3.84a4.18,4.18,0,0,0,1.89,4.17A11,11,0,0,0,224.2,418a30,30,0,0,0,10.39.18,14.37,14.37,0,0,0,8.83-5.13,18.08,18.08,0,0,0,2.31-4.45c.63-1.61,1.19-3.26,1.92-4.8a13.29,13.29,0,0,1,1.75-2.8c1.84-2.23,4.58-3.71,6-6.18.08-.14.17-.26.24-.4A9.21,9.21,0,0,0,256.25,388.7Z" style="fill: rgb(72, 202, 228); transform-origin: 237.043px 401.419px;" id="el8filkoflmr" class="animable"></path><path d="M230,409.09a11.55,11.55,0,0,0,10-2.75c2.71-2.48,4.05-6.1,6.22-9.06,1.79-2.44,4.13-4.42,6-6.81a12.39,12.39,0,0,0,2.69-6.18l-.47-1.14c-4.87.36-10.14.13-14.9,1.22a93.92,93.92,0,0,1-6.85,13.54,35.17,35.17,0,0,1-6.4,7.51,2.76,2.76,0,0,0,.41,1.73A5.1,5.1,0,0,0,230,409.09Z" style="fill: rgb(255, 168, 167); transform-origin: 240.594px 396.232px;" id="eliwdfwqyc9t" class="animable"></path><path d="M288.35,189.09c25.34,24.45,31.94,23.61,31.94,23.61,9.18-13.48,14.13-28.51,8.55-43.11-2.32-6.06-5.58-11.5-11.28-14.93a24.48,24.48,0,0,0-14.85-3.4A14.86,14.86,0,0,0,296.3,154c-.47.33-5,4.81-4.72,4.95-3.33-1.5-7.84.84-9.76,3.95s-2,7-1.34,10.63C281.5,179,284.35,185.23,288.35,189.09Z" style="fill: rgb(38, 50, 56); transform-origin: 305.649px 181.931px;" id="el2xlfvu3dnrm" class="animable"></path><path d="M292.21,205.62h-1c-6.54.08-14.81,4.53-18.85,15.93L256.68,252l17.93,8,9.81-28.71Z" style="fill: rgb(72, 202, 228); transform-origin: 274.445px 232.81px;" id="elvugn3risx2" class="animable"></path><g id="el04d7disj46rl"><path d="M279.62,225.81c-1.25,3.59-1.33,7.47-1.52,11.27s-.64,8.38-2.38,11.76a10.81,10.81,0,0,0-12.92.47,10,10,0,0,0-2.91,4.09l14.72,6.53,9.81-28.71,4.82-15.83A18.32,18.32,0,0,0,279.62,225.81Z" style="opacity: 0.2; transform-origin: 274.565px 237.66px;" class="animable"></path></g><g id="elstol1olrr3f"><path d="M292.21,205.62h-1c-6.54.08-14.81,4.53-18.85,15.93L256.68,252l17.93,8,9.81-28.71,4.82-15.83h0Z" style="opacity: 0.4; transform-origin: 274.445px 232.81px;" class="animable"></path></g><path d="M274.78,254.44a10.72,10.72,0,0,0-8.11-6.56c-3.59-.58-7.67,1.3-10,4.1-2,2.36-1.64,5.56-.41,8.36a10.44,10.44,0,0,0,12,5.67C272.86,264.72,276.52,258.92,274.78,254.44Z" style="fill: rgb(255, 168, 167); transform-origin: 265.238px 257.051px;" id="elj7g3k7wsnhb" class="animable"></path><path d="M293.87,205.07c-6.93,1.09-11.21,18.6-13.46,25.24-2.33,6.86.83,11.84,4.35,16h0a7.08,7.08,0,0,1,1.62,5.5l-7.28,27c19.87,14.75,53.17,7.6,62.2,2.78a63.78,63.78,0,0,0-5.84-27.37,45.16,45.16,0,0,1-4.4-17.7l-.34-9.93,2.4-17.12-17.25-4.1-15.2-.68A60.31,60.31,0,0,0,293.87,205.07Z" style="fill: rgb(72, 202, 228); transform-origin: 310.202px 246.158px;" id="el3x14f9lr32g" class="animable"></path><g id="elfx6ufb3t9le"><path d="M293.87,205.07c-6.93,1.09-11.21,18.6-13.46,25.24-2.33,6.86.83,11.84,4.35,16h0a7.08,7.08,0,0,1,1.62,5.5l-7.28,27c19.87,14.75,53.17,7.6,62.2,2.78a63.78,63.78,0,0,0-5.84-27.37,45.16,45.16,0,0,1-4.4-17.7l-.34-9.93,2.4-17.12-17.25-4.1-15.2-.68A60.31,60.31,0,0,0,293.87,205.07Z" style="opacity: 0.2; transform-origin: 310.202px 246.158px;" class="animable"></path></g><g style="isolation: isolate; transform-origin: 278.317px 268.852px;" id="elw1ep5f4sud" class="animable"><path d="M293.71,283.17v0h0v0s0,0,0-.06a.14.14,0,0,0,0-.06l0-.05a.14.14,0,0,1,0-.06l0-.06,0-.07h0l-11.73-21.85,0-.06a.21.21,0,0,1,0-.06l-.05-.07,0-.07-.05-.07-.05-.07-.05-.07a.18.18,0,0,1-.05-.07l-.06-.06,0-.06-.05-.05,0-.05,0,0,0,0,0,0,0,0,0,0,0,0,0,0,0,0,0,0,0,0,0,0,0,0,0,0,0,0,0,0,0,0,0,0,0,0,0,0,0,0,0,0,0,0,0,0-.05,0-.17-.15,0,0,0,0,0,0,0,0,0,0,0,0,0,0,0,0,0,0,0,0,0,0,0,0,0,0h0l0,0,0,0,0,0,0,0,0,0,0,0,0,0,0,0,0,0,0,0,0,0,0,0-.06,0-.05,0-.07,0-.07,0-.07,0-.08-.05,0,0-13.5-7.59,0,0-.08,0-.07,0-.08,0-.07,0-.07,0-.07,0-.07,0-.07,0-.08,0h-.25a.28.28,0,0,0-.2.08L263,252.44h0c-.13.1-.14.31.05.67L274.82,275a7.54,7.54,0,0,0,2.58,2.45L290.9,285c.69.39,1.11.4,1.17.12,0,0,0,.09,0,.12h0l1.61-1.84a.22.22,0,0,0,.05-.08s0-.05,0-.08Zm-30.42-30.78s0,0,.09,0h0l.05,0Zm15.46,8.71c.13.1.26.2.38.31h0C279,261.3,278.88,261.2,278.75,261.1Zm.85.82.16.17h0ZM292.09,285a1.09,1.09,0,0,0-.15-.44,1.05,1.05,0,0,1,.15.4h0S292.09,285,292.09,285Z" style="fill: rgb(69, 90, 100); transform-origin: 278.317px 268.852px;" id="elcem3edbc5lg" class="animable"></path></g><g id="el3i7w0x0qi75"><path d="M293.71,283.17v0h0v0s0,0,0-.06a.14.14,0,0,0,0-.06l0-.05a.14.14,0,0,1,0-.06l0-.06,0-.07h0l-11.73-21.85-1.61,1.85,11.73,21.84a1.05,1.05,0,0,1,.15.4h0a.27.27,0,0,1,0,.24h0l1.61-1.84a.22.22,0,0,0,.05-.08s0-.05,0-.08Z" style="fill: rgb(255, 255, 255); opacity: 0.15; transform-origin: 287.14px 273.125px;" class="animable"></path></g><g id="eltonslvbu92n"><path d="M281.79,260.83a.21.21,0,0,1,0-.06l-.05-.07,0-.07-.05-.07-.05-.07-.05-.07a.18.18,0,0,1-.05-.07l-.06-.06,0-.06-.05-.05,0-.05,0,0,0,0,0,0,0,0,0,0,0,0,0,0,0,0,0,0,0,0,0,0,0,0,0,0,0,0,0,0,0,0,0,0,0,0,0,0,0,0,0,0,0,0,0,0-.05,0-.17-.15,0,0,0,0,0,0,0,0,0,0,0,0,0,0,0,0,0,0,0,0,0,0,0,0,0,0h0l0,0,0,0,0,0,0,0,0,0,0,0,0,0,0,0,0,0,0,0,0,0,0,0-.06,0-.05,0-.07,0-.07,0-.07,0-.08-.05,0,0-13.5-7.59,0,0-.08,0-.07,0-.08,0-.07,0-.07,0-.07,0-.07,0-.07,0-.08,0h-.25a.28.28,0,0,0-.2.08L263,252.44c.07-.09.21-.11.4-.07h0a2.5,2.5,0,0,1,.74.31l13.5,7.59a6.31,6.31,0,0,1,.76.51h0q.39.3.75.63h0c.23.23.45.46.63.68h0a4.27,4.27,0,0,1,.45.65l1.61-1.85Z" style="fill: rgb(255, 255, 255); opacity: 0.2; transform-origin: 272.42px 257.54px;" class="animable"></path></g><path d="M339.79,215.22c-1.91-3.29-4.42-5.81-8.21-6.1,0,0-6.22,3.21-6.22,17.79l.41,36.45h0l-2.68,1.11a108.4,108.4,0,0,1-23.45,7.09,23.17,23.17,0,0,0-14.79-5l2,3.71c-3.78,2.41-12.29-1.94-12.29-1.94-.63,5.31,2.82,10.83,7.38,13.62s48.14-1.31,57.39-7.29c6.07-3.94,4.64-41.52,4.64-41.52A31.4,31.4,0,0,0,339.79,215.22Z" style="fill: rgb(255, 168, 167); transform-origin: 309.301px 245.982px;" id="elinv3qt2dy8j" class="animable"></path><path d="M265.36,257.31a24.9,24.9,0,0,0-.5,4.36,15.94,15.94,0,0,0,4.2,9.32,5,5,0,0,0,1.81,1.28,2.11,2.11,0,0,0,2.1-.34,3.11,3.11,0,0,0,.73-2.19,11.93,11.93,0,0,0-.19-3.53,4.94,4.94,0,0,0-1.86-2.93,10.59,10.59,0,0,0-2.36-1,5.86,5.86,0,0,1-2.11-1.53Z" style="fill: rgb(255, 168, 167); transform-origin: 269.307px 264.861px;" id="el63pdn9u9c8x" class="animable"></path><path d="M331.58,209.12c-7.45,4-6.69,14.49-6.69,25.91,0,12.54.88,28.33.88,28.33s-6,1.33-8,2.53a4.21,4.21,0,0,0-.69.92l1.05-.38c4.49,3.08,4.86,9.48,3.4,13.35l-1.25.21h0a3.32,3.32,0,0,0,2.52.53c10.88-2.07,13.21-2.59,16.05-4.7,7.89-5.64,6-19.07,6-31.24C344.89,233.57,346.08,209.64,331.58,209.12Z" style="fill: rgb(72, 202, 228); transform-origin: 331.064px 244.85px;" id="elbgm5xi974zt" class="animable"></path><g id="elsnhu3rjvb5"><path d="M331.58,209.12c-7.45,4-6.69,14.49-6.69,25.91,0,12.54.88,28.33.88,28.33s-6,1.33-8,2.53a4.21,4.21,0,0,0-.69.92l1.05-.38c4.49,3.08,4.86,9.48,3.4,13.35l-1.25.21h0a3.32,3.32,0,0,0,2.52.53c10.88-2.07,13.21-2.59,16.05-4.7,7.89-5.64,6-19.07,6-31.24C344.89,233.57,346.08,209.64,331.58,209.12Z" style="opacity: 0.4; transform-origin: 331.064px 244.85px;" class="animable"></path></g><g id="elj8mamw1b6x"><path d="M325.77,263.36c5.94-1.19,10.43,5.06,10.43,5.06-1.85-9.82-8.14-7.75-10.43-5.94Z" style="opacity: 0.2; transform-origin: 330.985px 264.69px;" class="animable"></path></g><path d="M300.67,197.94v13.77c-1.35,1.27-2.64,2.73-2.76,4.55a4.75,4.75,0,0,0,2.45,4.3,6.73,6.73,0,0,0,5.06.49,11.5,11.5,0,0,0,4.48-2.6,18.59,18.59,0,0,0,6-13.06V191.44Z" style="fill: rgb(255, 168, 167); transform-origin: 306.904px 206.386px;" id="el5eojuner3vl" class="animable"></path><g id="elq9q3t4tm6tt"><path d="M315.28,191.44c-1.43,7.58-4.39,14.14-14.61,16.5v-10Z" style="opacity: 0.2; transform-origin: 307.975px 199.69px;" class="animable"></path></g><path d="M311.72,183.45a14.47,14.47,0,0,0,0,3.66A4.24,4.24,0,0,0,313,189.5a2.68,2.68,0,0,0,2.48.62,4.76,4.76,0,0,1,9.15-2.63,6,6,0,0,1-.79,5A11.35,11.35,0,0,1,320,196a4,4,0,0,1-4.88-1.69c-4.39,6.06-12.28,10.79-19.87,10.47a10.88,10.88,0,0,1-5.84-1.79c-2.95-2.1-3.3-5.43-3.8-8.72a46.92,46.92,0,0,1-.41-12.58,27.54,27.54,0,0,1,3.56-10.83C294.6,178.36,309.31,170.07,311.72,183.45Z" style="fill: rgb(255, 168, 167); transform-origin: 304.909px 187.828px;" id="el9sbortb5cp5" class="animable"></path><polygon points="295.91 182.68 290.99 189.27 295.88 190.73 295.91 182.68" style="fill: rgb(242, 143, 143); transform-origin: 293.45px 186.705px;" id="elmwx4oklcoid" class="animable"></polygon><path d="M300.42,193.66l-4,1.44a2.5,2.5,0,0,0,2.79,1.12A2.23,2.23,0,0,0,300.42,193.66Z" style="fill: rgb(242, 143, 143); transform-origin: 298.454px 194.983px;" id="el5t21qu3rh86" class="animable"></path><g id="el2mpu65tfnti"><path d="M300.42,193.66l-4,1.44a2.5,2.5,0,0,0,2.79,1.12A2.23,2.23,0,0,0,300.42,193.66Z" style="opacity: 0.3; transform-origin: 298.454px 194.983px;" class="animable"></path></g><path d="M297.9,196.21a2.41,2.41,0,0,0,1.33,0,2,2,0,0,0,1.22-1.89,2.31,2.31,0,0,0-2.55,1.88Z" style="fill: rgb(242, 143, 143); transform-origin: 299.175px 195.303px;" id="ellu0no5ckuk" class="animable"></path><path d="M303.1,183.71a1.44,1.44,0,1,1-2.88,0,1.44,1.44,0,0,1,2.88,0Z" style="fill: rgb(38, 50, 56); transform-origin: 301.66px 183.71px;" id="eld5azt5r9fhi" class="animable"></path><path d="M291,183.2a1.44,1.44,0,1,1-1.44-1.45A1.45,1.45,0,0,1,291,183.2Z" style="fill: rgb(38, 50, 56); transform-origin: 289.56px 183.19px;" id="elfx5h4vvxepm" class="animable"></path><path d="M289.64,177.46c-1.06.74-2.13,1.47-3.2,2.2a2.06,2.06,0,0,1,.64-2.26A2.44,2.44,0,0,1,289.64,177.46Z" style="fill: rgb(38, 50, 56); transform-origin: 287.984px 178.363px;" id="elyy0gfshqhaq" class="animable"></path><path d="M302,177.34l3.18,2.22a2.05,2.05,0,0,0-.61-2.26A2.45,2.45,0,0,0,302,177.34Z" style="fill: rgb(38, 50, 56); transform-origin: 303.65px 178.258px;" id="el7wiq12jterr" class="animable"></path><path d="M326.92,206.5a5.82,5.82,0,1,1-5.82-5.82A5.83,5.83,0,0,1,326.92,206.5Z" style="fill: rgb(38, 50, 56); transform-origin: 321.1px 206.5px;" id="elk35yqe8pnsi" class="animable"></path><path d="M323.33,213.78a5.27,5.27,0,1,1-5.27-5.27A5.27,5.27,0,0,1,323.33,213.78Z" style="fill: rgb(38, 50, 56); transform-origin: 318.06px 213.78px;" id="elygyxtc0s9r" class="animable"></path><circle cx="314.85" cy="219.2" r="4.75" style="fill: rgb(38, 50, 56); transform-origin: 314.85px 219.2px;" id="elosysflo1b1m" class="animable"></circle><path d="M316.14,223.94a4.08,4.08,0,1,1-4.08-4.08A4.09,4.09,0,0,1,316.14,223.94Z" style="fill: rgb(38, 50, 56); transform-origin: 312.06px 223.94px;" id="elyd0sq8ijudk" class="animable"></path><path d="M314.82,229.16a3.62,3.62,0,1,1-3.62-3.62A3.62,3.62,0,0,1,314.82,229.16Z" style="fill: rgb(38, 50, 56); transform-origin: 311.2px 229.16px;" id="el23vqkrgaur" class="animable"></path><path d="M311.62,230.54a3.75,3.75,0,0,0-1.85,4.92c.42.94,1.22,1.69,1.56,2.66a3.19,3.19,0,0,1-.95,3.4,10,10,0,0,0,3.83-1.76,6.72,6.72,0,0,0,2.31-3.55,5,5,0,0,0-.74-4.11C314.93,230.94,312.93,229.94,311.62,230.54Z" style="fill: rgb(38, 50, 56); transform-origin: 313.064px 235.94px;" id="ely7n0j2qkkm" class="animable"></path><path d="M378.29,258.71l-62.83,48.67a17.78,17.78,0,0,0-6.8,12.34l-7,73.85a2.39,2.39,0,0,0,2.92.25l12.52-74.13a8.84,8.84,0,0,1,4.19-6.13l55.52-33.28C384,276,385.31,260.66,378.29,258.71Z" style="fill: rgb(69, 90, 100); transform-origin: 342.295px 326.457px;" id="el0qhuq2cv08uk" class="animable"></path><g id="el62hy5pfm33w"><path d="M378.29,258.71l-62.83,48.67a17.78,17.78,0,0,0-6.8,12.34l-7,73.85a2.39,2.39,0,0,0,2.92.25l12.52-74.13a8.84,8.84,0,0,1,4.19-6.13l55.52-33.28C384,276,385.31,260.66,378.29,258.71Z" style="fill: rgb(255, 255, 255); opacity: 0.3; transform-origin: 342.295px 326.457px;" class="animable"></path></g></g><g id="freepik--side-table--inject-76" class="animable" style="transform-origin: 406.55px 341.03px;"><polygon points="366.28 387.89 361.84 390.48 361.85 385.33 366.28 387.89" style="fill: rgb(230, 230, 230); transform-origin: 364.06px 387.905px;" id="elsa9llygxse" class="animable"></polygon><polygon points="361.96 360.46 361.96 360.4 361.96 360.4 361.96 360.4 361.96 360.46" style="fill: rgb(120, 120, 120); transform-origin: 361.96px 360.43px;" id="elfwush22ad3o" class="animable"></polygon><rect x="383.58" y="347.92" height="49.94" style="fill: rgb(207, 207, 207); transform-origin: 383.58px 372.89px;" id="elyaw14s0inmm" class="animable"></rect><polygon points="362.03 335.44 405.28 360.41 405.28 360.41 362.03 335.44" style="fill: rgb(207, 207, 207); transform-origin: 383.655px 347.925px;" id="eljfi5w4u6ob" class="animable"></polygon><path d="M366.28,387.89l38.9,22.46,0,5.14,4.63,2.67.18-60.42-52.59-30.36-.17,60.42,4.63,2.68v-5.14ZM405.22,380,362,355l0-19.6,43.25,25h0ZM405.15,405l-43.24-25,0-19.53v-.06h0l43.25,25h0Z" style="fill: rgb(224, 224, 224); transform-origin: 383.61px 372.77px;" id="el8ivs8esti2n" class="animable"></path><polygon points="361.9 379.99 361.96 360.46 361.96 360.4 405.21 385.37 405.21 385.37 405.15 404.96 361.9 379.99" style="fill: rgb(224, 224, 224); transform-origin: 383.555px 382.68px;" id="el6d2yksvu4k7" class="animable"></polygon><polygon points="361.98 355.04 362.03 335.44 405.28 360.41 405.28 360.41 405.22 380.01 361.98 355.04" style="fill: rgb(224, 224, 224); transform-origin: 383.63px 357.725px;" id="eltb8vmvbsr6" class="animable"></polygon><polygon points="409.96 357.74 455.87 331.06 455.7 391.48 409.79 418.16 409.96 357.74" style="fill: rgb(224, 224, 224); transform-origin: 432.83px 374.61px;" id="elbcnevdcrgut" class="animable"></polygon><polygon points="409.96 357.74 357.38 327.38 403.29 300.7 455.87 331.06 409.96 357.74" style="fill: rgb(224, 224, 224); transform-origin: 406.625px 329.22px;" id="elgh3cqea7uxa" class="animable"></polygon><g id="elrpweu1pkwv"><polygon points="366.28 387.89 361.84 390.48 361.85 385.33 366.28 387.89" style="fill: rgb(255, 255, 255); opacity: 0.2; transform-origin: 364.06px 387.905px;" class="animable"></polygon></g><polygon points="361.96 360.46 361.96 360.4 361.96 360.4 361.96 360.4 361.96 360.46" style="fill: rgb(120, 120, 120); transform-origin: 361.96px 360.43px;" id="elipbv9ln2jd9" class="animable"></polygon><rect x="383.58" y="347.92" height="49.94" style="fill: rgb(207, 207, 207); transform-origin: 383.58px 372.89px;" id="el2fzav867v4g" class="animable"></rect><polygon points="362.03 335.44 405.28 360.41 405.28 360.41 362.03 335.44" style="fill: rgb(207, 207, 207); transform-origin: 383.655px 347.925px;" id="el80upyl0jl5b" class="animable"></polygon><g id="elybtqewns0a"><polygon points="361.9 379.99 361.96 360.46 361.96 360.4 405.21 385.37 405.21 385.37 405.15 404.96 361.9 379.99" style="fill: rgb(255, 255, 255); opacity: 0.8; transform-origin: 383.555px 382.68px;" class="animable"></polygon></g><g id="el5tueiibbub"><polygon points="361.98 355.04 362.03 335.44 405.28 360.41 405.28 360.41 405.22 380.01 361.98 355.04" style="fill: rgb(255, 255, 255); opacity: 0.8; transform-origin: 383.63px 357.725px;" class="animable"></polygon></g><polygon points="376.13 350.87 376.15 348.16 391.13 356.81 391.13 356.81 391.11 359.52 376.13 350.87" style="fill: rgb(224, 224, 224); transform-origin: 383.63px 353.84px;" id="elq91egytzimr" class="animable"></polygon><polygon points="376.13 375.48 376.15 372.77 391.13 381.42 391.13 381.42 391.11 384.13 376.13 375.48" style="fill: rgb(224, 224, 224); transform-origin: 383.63px 378.45px;" id="elu9x40q91d0o" class="animable"></polygon><g id="elaeqgsipndz"><polygon points="409.96 357.74 455.87 331.06 455.7 391.48 409.79 418.16 409.96 357.74" style="fill: rgb(255, 255, 255); opacity: 0.2; transform-origin: 432.83px 374.61px;" class="animable"></polygon></g><g id="elquzqwon585p"><polygon points="409.96 357.74 357.38 327.38 403.29 300.7 455.87 331.06 409.96 357.74" style="fill: rgb(255, 255, 255); opacity: 0.4; transform-origin: 406.625px 329.22px;" class="animable"></polygon></g><g id="elveap7xvqaj"><path d="M420.16,316.29c-5.83-3.37-15.27-3.37-21.07,0s-5.77,8.84.07,12.21,15.27,3.37,21.07,0S426,319.66,420.16,316.29Z" style="opacity: 0.05; transform-origin: 409.66px 322.395px;" class="animable"></path></g><path d="M425.23,295.08l-16,.46-16-.46c-.69,10.82,1.42,21.84,4.33,27.22h0a7.28,7.28,0,0,0,3.17,3.23c4.72,2.73,12.36,2.73,17.06,0a7.21,7.21,0,0,0,3.17-3.31C423.82,316.81,425.91,305.84,425.23,295.08Z" style="fill: rgb(255, 255, 255); transform-origin: 409.229px 311.329px;" id="elqx8z5j5ge6j" class="animable"></path><path d="M420.5,288.52c6.27,3.62,6.31,9.5.07,13.12s-16.38,3.62-22.65,0-6.31-9.5-.08-13.12S414.22,284.89,420.5,288.52Z" style="fill: rgb(235, 235, 235); transform-origin: 409.209px 295.078px;" id="elysgwhl2q9kh" class="animable"></path><path d="M418,290c4.89,2.83,4.92,7.41.05,10.24s-12.77,2.82-17.67,0-4.92-7.41-.06-10.24S413.12,287.13,418,290Z" style="fill: rgb(224, 224, 224); transform-origin: 409.187px 295.111px;" id="el6j99ynuxhti" class="animable"></path><g id="el89j1vuvtr7m"><g style="opacity: 0.15; transform-origin: 409.187px 295.111px;" class="animable"><path d="M418,290c4.89,2.83,4.92,7.41.05,10.24s-12.77,2.82-17.67,0-4.92-7.41-.06-10.24S413.12,287.13,418,290Z" id="elez19tlqf2bu" class="animable" style="transform-origin: 409.187px 295.111px;"></path></g></g><path d="M407.87,295.53a10.58,10.58,0,0,0,9.4,2.14,9.84,9.84,0,0,0,6.58-6.66,19.22,19.22,0,0,1-5.14-3.57,13.19,13.19,0,0,1,7.28.26,7.43,7.43,0,0,0,.55-6.94,12.76,12.76,0,0,0-8.69-.61,11.55,11.55,0,0,1,8.79-2.76,33.66,33.66,0,0,0-2.11-13.49c-6,.31-11.77,2.88-13.72,4.73a22,22,0,0,0,.66,6.35,5.11,5.11,0,0,1-2.77-4.1c-3.74.93-5.34,2.8-5.92,4.22a15.58,15.58,0,0,0,3.54,7.17c-3.51-1.06-4.94-5-4.94-5C397.93,285.48,398.59,294.73,407.87,295.53Z" style="fill: rgb(72, 202, 228); transform-origin: 413.306px 280.948px;" id="elm5eijp8idk" class="animable"></path><g id="elo0x0cgxxx2"><path d="M407.87,295.53a10.58,10.58,0,0,0,9.4,2.14,9.84,9.84,0,0,0,6.58-6.66,19.22,19.22,0,0,1-5.14-3.57,13.19,13.19,0,0,1,7.28.26,7.43,7.43,0,0,0,.55-6.94,12.76,12.76,0,0,0-8.69-.61,11.55,11.55,0,0,1,8.79-2.76,33.66,33.66,0,0,0-2.11-13.49c-6,.31-11.77,2.88-13.72,4.73a22,22,0,0,0,.66,6.35,5.11,5.11,0,0,1-2.77-4.1c-3.74.93-5.34,2.8-5.92,4.22a15.58,15.58,0,0,0,3.54,7.17c-3.51-1.06-4.94-5-4.94-5C397.93,285.48,398.59,294.73,407.87,295.53Z" style="opacity: 0.2; transform-origin: 413.306px 280.948px;" class="animable"></path></g><g id="elfio8apz8olm"><path d="M407.87,295.53a10.58,10.58,0,0,0,9.4,2.14,9.84,9.84,0,0,0,6.58-6.66,19.22,19.22,0,0,1-5.14-3.57,13.19,13.19,0,0,1,7.28.26,7.43,7.43,0,0,0,.55-6.94,12.76,12.76,0,0,0-8.69-.61,11.55,11.55,0,0,1,8.79-2.76,33.66,33.66,0,0,0-2.11-13.49c-6,.31-11.77,2.88-13.72,4.73a22,22,0,0,0,.66,6.35,5.11,5.11,0,0,1-2.77-4.1c-3.74.93-5.34,2.8-5.92,4.22a15.58,15.58,0,0,0,3.54,7.17c-3.51-1.06-4.94-5-4.94-5C397.93,285.48,398.59,294.73,407.87,295.53Z" style="fill: rgb(255, 255, 255); opacity: 0.3; transform-origin: 413.306px 280.948px;" class="animable"></path></g><path d="M407.66,296.42h0a.35.35,0,0,1-.32-.37c.57-7.55,4.88-20,15.17-30.27a.35.35,0,0,1,.49.49c-10.16,10.14-14.41,22.4-15,29.83A.36.36,0,0,1,407.66,296.42Z" style="fill: rgb(245, 245, 245); transform-origin: 415.205px 281.065px;" id="elffvzw2dct0b" class="animable"></path><path d="M410.48,299.57a9.81,9.81,0,0,1-15.33-4,16.56,16.56,0,0,0,4.64-3.15,13.17,13.17,0,0,0-6.88.2,6.39,6.39,0,0,1-1-6.19,12.58,12.58,0,0,1,8.19-.49,12.1,12.1,0,0,0-8.5-2.52,27.34,27.34,0,0,1,1.15-12c5.69.34,11.33,2.7,13.28,4.37a18,18,0,0,1-.23,5.63,4.14,4.14,0,0,0,2.36-3.62c3.56.86,5.17,2.53,5.81,3.79a12.52,12.52,0,0,1-2.88,6.33c3.22-.92,4.31-4.37,4.31-4.37C419.15,290.71,419.1,298.87,410.48,299.57Z" style="fill: rgb(72, 202, 228); transform-origin: 404.576px 286.6px;" id="elpgtnw1sqtm" class="animable"></path><g id="el8mxyw7chrtu"><path d="M410.48,299.57a9.81,9.81,0,0,1-15.33-4,16.56,16.56,0,0,0,4.64-3.15,13.17,13.17,0,0,0-6.88.2,6.39,6.39,0,0,1-1-6.19,12.58,12.58,0,0,1,8.19-.49,12.1,12.1,0,0,0-8.5-2.52,27.34,27.34,0,0,1,1.15-12c5.69.34,11.33,2.7,13.28,4.37a18,18,0,0,1-.23,5.63,4.14,4.14,0,0,0,2.36-3.62c3.56.86,5.17,2.53,5.81,3.79a12.52,12.52,0,0,1-2.88,6.33c3.22-.92,4.31-4.37,4.31-4.37C419.15,290.71,419.1,298.87,410.48,299.57Z" style="fill: rgb(255, 255, 255); opacity: 0.3; transform-origin: 404.576px 286.6px;" class="animable"></path></g><path d="M410.71,300.39a.35.35,0,0,1-.34-.29c-1-6.57-5.75-17.47-16-26.58a.35.35,0,0,1,0-.49.36.36,0,0,1,.49,0c10.36,9.24,15.2,20.31,16.2,27a.37.37,0,0,1-.29.4Z" style="fill: rgb(255, 255, 255); transform-origin: 402.666px 286.682px;" id="elja2exsipqib" class="animable"></path></g><g id="freepik--Offer--inject-76" class="animable" style="transform-origin: 241.206px 119.02px;"><path d="M279.14,79.89a1,1,0,0,0-.52-.89h0L274,76.44h0a1,1,0,0,0-1,0l-56.55,32.7a3.09,3.09,0,0,0-1.27,1.41,3.18,3.18,0,0,0-.27,1.27l0,16.93L204,140c-1,1-1.08,2.54-.32,2.78l4.35,2.4a.68.68,0,0,0,.6.2l6.34-.77,0,13.6a1,1,0,0,0,.51.88h0l4.58,2.54.07,0,.05,0a1,1,0,0,0,.93,0L277.7,129a3.07,3.07,0,0,0,1.54-2.68Zm-58.81,32.39-.11.12Zm-.3.39a1,1,0,0,0-.08.11A1,1,0,0,1,220,112.67Zm-.44,1,0,.13Zm1-1.64.11-.1Z" style="fill: rgb(72, 202, 228); transform-origin: 241.206px 119.025px;" id="eltgogi6an0ak" class="animable"></path><g id="elzisbd7az5gr"><path d="M219.61,160.81a1,1,0,0,0,.49.86l-4.58-2.54h0a1,1,0,0,1-.51-.88l0-13.6,4.61-.57Z" style="opacity: 0.1; transform-origin: 217.555px 152.875px;" class="animable"></path></g><g id="elc0gvn9cy1ew"><path d="M216.43,109.13,273,76.43a1,1,0,0,1,1,0h0L278.62,79h0a1,1,0,0,0-1,0l-56.55,32.7a3.06,3.06,0,0,0-1.31,1.49l-4.58-2.65A3.09,3.09,0,0,1,216.43,109.13Z" style="fill: rgb(255, 255, 255); opacity: 0.2; transform-origin: 246.9px 94.743px;" class="animable"></path></g><g id="elaisy33n29n8"><path d="M214.92,128.74l0-16.93a3.18,3.18,0,0,1,.27-1.27l4.58,2.65a3.14,3.14,0,0,0-.23,1.18l0,16.93-4.62-2.56Z" style="fill: rgb(255, 255, 255); opacity: 0.1; transform-origin: 217.345px 120.92px;" class="animable"></path></g><g id="elgvuuz0e3b64"><path d="M204,140l10.92-11.29,4.62,2.56h0l-10.92,11.3c-.84.87-1,2.13-.59,2.61l-4.35-2.4C202.92,142.57,203,141,204,140Z" style="fill: rgb(255, 255, 255); opacity: 0.05; transform-origin: 211.356px 136.945px;" class="animable"></path></g><polygon points="229.96 128.35 229.98 135.11 228.61 135.91 226 133.8 226.01 137.41 224.38 138.35 224.36 131.58 225.73 130.79 228.34 132.9 228.33 129.29 229.96 128.35" style="fill: rgb(255, 255, 255); transform-origin: 227.17px 133.35px;" id="elapmrmemznva" class="animable"></polygon><path d="M234.12,125.81c1.89-1.09,3.28-.4,3.28,1.63a6.69,6.69,0,0,1-3.26,5.41c-1.88,1.09-3.28.4-3.28-1.63A6.71,6.71,0,0,1,234.12,125.81Zm0,5.46a3.44,3.44,0,0,0,1.58-2.86c0-1.17-.71-1.52-1.6-1a3.4,3.4,0,0,0-1.58,2.85c0,1.17.7,1.53,1.6,1" style="fill: rgb(255, 255, 255); transform-origin: 234.13px 129.33px;" id="el2mbgp4rczly" class="animable"></path><path d="M243.78,130.9c1.88-1.08,3.26-.26,3.26,2.54a7.2,7.2,0,0,1-3.23,6.28c-1.88,1.08-3.26.26-3.27-2.53A7.21,7.21,0,0,1,243.78,130.9Zm0,6.86c.67-.39,1.15-1.33,1.15-3.11s-.5-2.17-1.16-1.79-1.15,1.34-1.15,3.12.49,2.16,1.16,1.78" style="fill: rgb(255, 255, 255); transform-origin: 243.79px 135.31px;" id="elqhpvnl6zs4" class="animable"></path><polygon points="247.32 118.33 245.42 126.2 243.64 127.23 242.5 123.77 241.34 128.56 239.55 129.59 237.62 123.93 239.34 122.94 240.53 126.57 241.77 121.53 243.3 120.65 244.5 124.33 245.72 119.25 247.32 118.33" style="fill: rgb(255, 255, 255); transform-origin: 242.47px 123.96px;" id="elvp63xxcjuxh" class="animable"></polygon><path d="M253.47,114.64c1.88-1.09,3.28-.4,3.28,1.63a6.71,6.71,0,0,1-3.26,5.41c-1.89,1.09-3.28.4-3.29-1.63A6.72,6.72,0,0,1,253.47,114.64Zm0,5.46a3.43,3.43,0,0,0,1.58-2.86c0-1.17-.7-1.53-1.6-1a3.42,3.42,0,0,0-1.58,2.85c0,1.17.7,1.54,1.6,1" style="fill: rgb(255, 255, 255); transform-origin: 253.475px 118.16px;" id="elfqeldcalwz5" class="animable"></path><path d="M264.11,119.17c1.87-1.08,3.24-.26,3.25,2.54a7.19,7.19,0,0,1-3.23,6.27c-1.89,1.09-3.26.27-3.26-2.52A7.19,7.19,0,0,1,264.11,119.17Zm0,6.85c.66-.38,1.14-1.32,1.13-3.1s-.48-2.17-1.15-1.79-1.15,1.34-1.15,3.12.49,2.16,1.17,1.77" style="fill: rgb(255, 255, 255); transform-origin: 264.115px 123.578px;" id="elsiwcaso3mt" class="animable"></path><polygon points="263.23 109.14 263.25 115.91 261.88 116.7 259.27 114.59 259.28 118.2 257.64 119.15 257.62 112.38 259 111.58 261.61 113.69 261.59 110.09 263.23 109.14" style="fill: rgb(255, 255, 255); transform-origin: 260.435px 114.145px;" id="el8411e0ee489" class="animable"></polygon><polygon points="274.37 102.71 272.12 108.36 272.13 110.78 270.46 111.75 270.45 109.29 268.2 106.28 269.95 105.26 271.36 107.14 272.75 103.64 274.37 102.71" style="fill: rgb(255, 255, 255); transform-origin: 271.285px 107.23px;" id="els1i0nmj7ss" class="animable"></polygon><path d="M271.32,115c1.87-1.08,3.25-.26,3.25,2.53a7.17,7.17,0,0,1-3.23,6.28c-1.88,1.09-3.26.27-3.27-2.53A7.21,7.21,0,0,1,271.32,115Zm0,6.85c.67-.38,1.15-1.33,1.15-3.11s-.5-2.16-1.16-1.78-1.15,1.33-1.15,3.11.49,2.17,1.16,1.78" style="fill: rgb(255, 255, 255); transform-origin: 271.321px 119.408px;" id="el8o25we3k1l9" class="animable"></path><polygon points="266.08 107.5 266.1 112.75 268.91 111.12 268.91 112.64 264.43 115.22 264.41 108.46 266.08 107.5" style="fill: rgb(255, 255, 255); transform-origin: 266.66px 111.36px;" id="el5gm9rwfk2bq" class="animable"></polygon><path d="M228.14,138.65V140a4.26,4.26,0,0,1,2.14-.52l-.64,2.15a3.72,3.72,0,0,0-2,.52c-.88.51-1.19,1-1.19,1.45,0,1.29,4.18-2.09,4.19,1a5.43,5.43,0,0,1-2.44,4.08V150l-1.27.73v-1.29a4.55,4.55,0,0,1-2.66.61l.67-2.15a3.94,3.94,0,0,0,2.44-.57c.86-.5,1.2-1,1.2-1.39,0-1.34-4.19,2.06-4.2-1.08a5.46,5.46,0,0,1,2.52-4.17v-1.33Z" style="fill: rgb(255, 255, 255); transform-origin: 227.455px 144.69px;" id="el7vnqgkwty4p" class="animable"></path><path d="M236.87,134.9c1.7-1,2.87-.65,2.87.92a6.22,6.22,0,0,1-1.25,3.41l-1.38,2.28,2.84-1.64v1.9l-5.73,3.31v-1.5L237,139a3.29,3.29,0,0,0,.66-1.75c0-.54-.32-.69-.95-.32a3.27,3.27,0,0,0-1.31,1.58l-1.55-.1A7.11,7.11,0,0,1,236.87,134.9Z" style="fill: rgb(255, 255, 255); transform-origin: 236.9px 139.709px;" id="el8zpee8ljkkn" class="animable"></path><path d="M251,126.74c1.87-1.08,3.24-.26,3.25,2.53a7.17,7.17,0,0,1-3.23,6.28c-1.88,1.09-3.25.27-3.26-2.53A7.2,7.2,0,0,1,251,126.74Zm0,6.85c.66-.38,1.15-1.33,1.14-3.11s-.49-2.16-1.16-1.78-1.15,1.33-1.15,3.11.49,2.17,1.17,1.78" style="fill: rgb(255, 255, 255); transform-origin: 251.005px 131.148px;" id="elabxfpxg984p" class="animable"></path><path d="M256,129.91c.69-.4,1.2-.15,1.2.67a5,5,0,0,1-.34,1.59l-.66,2.15-1.26.72.49-2.26c-.38,0-.62-.25-.62-.82A2.45,2.45,0,0,1,256,129.91Z" style="fill: rgb(255, 255, 255); transform-origin: 256.005px 132.381px;" id="el5rf7gvxc3hy" class="animable"></path><path d="M230.13,115v1.92l-3.08,1.78L227,120l.51-.29c2.26-1.31,3.15-.62,3.15.94a6,6,0,0,1-3.33,4.92,5.17,5.17,0,0,1-3,.85l.78-2.32a3.19,3.19,0,0,0,2.12-.5,2.12,2.12,0,0,0,1.22-1.63c0-.54-.32-.71-1.49,0l-2.08,1.2.37-5.35Z" style="fill: rgb(255, 255, 255); transform-origin: 227.495px 120.711px;" id="el40w1hjx1yfl" class="animable"></path><path d="M234.61,112.21c1.94-1.12,3.37-.28,3.38,2.62a7.47,7.47,0,0,1-3.36,6.51c-1.95,1.13-3.38.28-3.38-2.62A7.45,7.45,0,0,1,234.61,112.21Zm0,7.1c.69-.4,1.19-1.38,1.18-3.22s-.51-2.25-1.2-1.85-1.2,1.38-1.19,3.23.51,2.24,1.21,1.84" style="fill: rgb(255, 255, 255); transform-origin: 234.62px 116.777px;" id="elaq0nqx5vypk" class="animable"></path><path d="M246,109.87c1.13-.65,2-.22,2,1.3a4.15,4.15,0,0,1-2,3.57c-1.14.66-2,.22-2-1.31A4.15,4.15,0,0,1,246,109.87Zm0,3.68a1.76,1.76,0,0,0,.64-1.62c0-.88-.29-1.08-.65-.87a1.77,1.77,0,0,0-.64,1.62c0,.89.29,1.08.65.87" style="fill: rgb(255, 255, 255); transform-origin: 246px 112.307px;" id="elsvzdamhf8b" class="animable"></path><polygon points="245.06 106.35 246.63 105.44 241.44 117.24 239.86 118.15 245.06 106.35" style="fill: rgb(255, 255, 255); transform-origin: 243.245px 111.795px;" id="eloz75f76uxvq" class="animable"></polygon><path d="M242.51,110.15a4.13,4.13,0,0,1-2,3.56c-1.12.65-2,.23-2-1.3a4.16,4.16,0,0,1,1.95-3.56C241.68,108.19,242.51,108.63,242.51,110.15Zm-2.61,1.5c0,.9.3,1.07.65.87s.64-.72.64-1.61-.28-1.09-.65-.87a1.76,1.76,0,0,0-.64,1.61" style="fill: rgb(255, 255, 255); transform-origin: 240.51px 111.279px;" id="el98413sole1w" class="animable"></path><path d="M255.94,99.89c2.44-1.41,4.25-.52,4.26,2.12a8.7,8.7,0,0,1-4.23,7c-2.46,1.42-4.26.53-4.27-2.11A8.72,8.72,0,0,1,255.94,99.89Zm0,7.08a4.42,4.42,0,0,0,2-3.7c0-1.52-.91-2-2.06-1.32a4.41,4.41,0,0,0-2.06,3.7c0,1.52.91,2,2.07,1.32" style="fill: rgb(255, 255, 255); transform-origin: 255.95px 104.453px;" id="elq5ll0qp21ih" class="animable"></path><polygon points="267.32 93.5 267.32 95.42 263.49 97.64 263.5 99.57 266.87 97.62 266.87 99.53 263.5 101.48 263.51 104.5 261.35 105.74 261.32 96.96 267.32 93.5" style="fill: rgb(255, 255, 255); transform-origin: 264.32px 99.62px;" id="elpz7e2elo1t" class="animable"></polygon><polygon points="274.33 89.45 274.34 91.37 270.5 93.59 270.51 95.52 273.88 93.57 273.89 95.49 270.51 97.43 270.52 100.45 268.36 101.69 268.33 92.91 274.33 89.45" style="fill: rgb(255, 255, 255); transform-origin: 271.335px 95.57px;" id="el0h30z27upa6" class="animable"></polygon></g><g id="freepik--speech-bubbles--inject-76" class="animable" style="transform-origin: 341.31px 149.314px;"><path d="M328.39,102.47l-25.72,14.75a5,5,0,0,0-1.87,1.9,5.07,5.07,0,0,0-.65,2.46v18.71a5,5,0,0,0,7.58,4.08l4.47-2.55.41.65s0,0,.06.06h0l.05,0h0c.74.49,2,1.18,2.32,1.33v0a.27.27,0,0,0,.34-.17l1.65-4.66h0l16.41-9.38a5,5,0,0,0,2.53-4.36V106.55C336,102.93,330.64,101.18,328.39,102.47Z" style="fill: rgb(72, 202, 228); transform-origin: 318.06px 123.569px;" id="el2jdvihe1dfq" class="animable"></path><path d="M307.14,120.27Z" style="fill: none; transform-origin: 307.14px 120.27px;" id="el9wec84h6kma" class="animable"></path><g id="el8d2orxxd08o"><path d="M312.61,142.47s0,0,.06.06h0l.05,0h0c.74.49,2,1.18,2.32,1.33v0a.29.29,0,0,1-.16-.11l-1.59-2.58.31-.18h0l-1.4.8Z" style="fill: rgb(255, 255, 255); opacity: 0.2; transform-origin: 313.62px 142.425px;" class="animable"></path></g><g id="elhs70e5zrybh"><path d="M305.79,122a5.22,5.22,0,0,1,1.35-1.68h0a5.47,5.47,0,0,1,.61-.42l25.72-14.75a1.67,1.67,0,0,1,2.5,1.45c0-3.62-5.33-5.37-7.58-4.08l-25.72,14.75a5,5,0,0,0-1.87,1.9Z" style="fill: rgb(255, 255, 255); opacity: 0.4; transform-origin: 318.385px 112.049px;" class="animable"></path></g><g id="elaykvdilu7"><path d="M305.23,142.92V124.21a3.94,3.94,0,0,1,0-.6,5.35,5.35,0,0,1,.52-1.66l-5-2.83a5.07,5.07,0,0,0-.65,2.46v18.71a5,5,0,0,0,7.58,4.08A1.67,1.67,0,0,1,305.23,142.92Z" style="fill: rgb(255, 255, 255); opacity: 0.2; transform-origin: 303.89px 132.105px;" class="animable"></path></g><path d="M317.82,124.92c.39-.22.71,0,.71.4v.21l0,5.8v1a1.56,1.56,0,0,1-.7,1.22l-3.5,2c-.39.22-.7,0-.71-.41v-7a1.51,1.51,0,0,1,.7-1.21Zm-1.31,8.42a1.6,1.6,0,0,0,.74-1.27c0-.47-.33-.66-.74-.42a1.6,1.6,0,0,0-.74,1.27c0,.47.34.66.74.42" style="fill: rgb(72, 202, 228); transform-origin: 316.075px 130.235px;" id="elf6xyr9opxdi" class="animable"></path><g id="el61jv7kl6jqi"><g style="opacity: 0.5; transform-origin: 316.075px 130.235px;" class="animable"><path d="M317.82,124.92c.39-.22.71,0,.71.4v.21l0,5.8v1a1.56,1.56,0,0,1-.7,1.22l-3.5,2c-.39.22-.7,0-.71-.41v-7a1.51,1.51,0,0,1,.7-1.21Zm-1.31,8.42a1.6,1.6,0,0,0,.74-1.27c0-.47-.33-.66-.74-.42a1.6,1.6,0,0,0-.74,1.27c0,.47.34.66.74.42" style="fill: rgb(255, 255, 255); transform-origin: 316.075px 130.235px;" id="el05wohp9gle5o" class="animable"></path></g></g><path d="M321.38,115.15c1.53-.88,2.75-.09,2.66,1.71l-.14,2.87,4.06-2.35c1.39-.8,1.69,1.05.75,2.36,1,.27.67,1.89-.18,2.92.79.36.09,2.18-.88,2.94.63.26.09,2.22-1,2.86l-4,2.3-2.52,1.46c-.86.5-1.56.1-1.56-.89l0-5.8,1.6-3.88a15.87,15.87,0,0,0,1.26-5.85Z" style="fill: rgb(255, 255, 255); transform-origin: 323.948px 123.612px;" id="elz39uxe6vkr8" class="animable"></path><path d="M382.52,157.17a.64.64,0,0,0-.33-.56h0L379.26,155h0a.66.66,0,0,0-.64,0L353.19,169.6a2,2,0,0,0-.81.9,2,2,0,0,0-.17.8l0,7.46-6.94,7.18c-.63.64-.69,1.61-.21,1.76l2.77,1.53a.43.43,0,0,0,.38.12l4-.49v5.48a.66.66,0,0,0,.32.56h0l2.91,1.61,0,0h0a.65.65,0,0,0,.59,0l25.42-14.62a2,2,0,0,0,1-1.7ZM355.66,171.6l-.06.08Zm-.18.25a.18.18,0,0,0-.05.07A.18.18,0,0,1,355.48,171.85Zm-.28.65a.29.29,0,0,0,0,.09A.29.29,0,0,1,355.2,172.5Zm.61-1,.07-.06Z" style="fill: rgb(72, 202, 228); transform-origin: 363.631px 175.749px;" id="elox5sv3011rh" class="animable"></path><g id="el2pjqv07p8xa"><path d="M355.21,196a.63.63,0,0,0,.31.55l-2.91-1.61h0a.66.66,0,0,1-.32-.56v-5.48l2.93-.35Z" style="opacity: 0.1; transform-origin: 353.905px 192.55px;" class="animable"></path></g><g id="el5grtqczv7vb"><path d="M353.19,169.6,378.6,155a.66.66,0,0,1,.64,0h0l2.93,1.63h0a.65.65,0,0,0-.65,0l-25.41,14.62a2,2,0,0,0-.84,1l-2.91-1.68A2,2,0,0,1,353.19,169.6Z" style="fill: rgb(255, 255, 255); opacity: 0.2; transform-origin: 367.265px 163.584px;" class="animable"></path></g><g id="eldiherur3v5d"><path d="M352.23,178.76l0-7.46a2,2,0,0,1,.17-.8l2.91,1.68a2.08,2.08,0,0,0-.14.75l0,7.46-2.94-1.63Z" style="fill: rgb(255, 255, 255); opacity: 0.1; transform-origin: 353.77px 175.445px;" class="animable"></path></g><g id="elnn0hxra33"><path d="M345.29,185.94l6.94-7.18,2.94,1.63h0l-6.95,7.18c-.53.55-.66,1.35-.37,1.66l-2.77-1.53C344.6,187.55,344.66,186.58,345.29,185.94Z" style="fill: rgb(255, 255, 255); opacity: 0.05; transform-origin: 349.966px 183.995px;" class="animable"></path></g><path d="M373.05,166.54a3.12,3.12,0,0,1,3.12-.31c1.74,1,1.75,4.19,0,7.16l-1,1.75L369,185.9l-6.27-3.56-1-.58c-1.74-1-1.75-4.19,0-7.17a8.9,8.9,0,0,1,3.11-3.28,3.15,3.15,0,0,1,3.12-.32l1,.57,1-1.73A9,9,0,0,1,373.05,166.54Z" style="fill: rgb(255, 255, 255); transform-origin: 368.95px 175.925px;" id="el7w0qqy7iocq" class="animable"></path></g><defs>     <filter id="active" height="200%">         <feMorphology in="SourceAlpha" result="DILATED" operator="dilate" radius="2"></feMorphology>                <feFlood flood-color="#32DFEC" flood-opacity="1" result="PINK"></feFlood>        <feComposite in="PINK" in2="DILATED" operator="in" result="OUTLINE"></feComposite>        <feMerge>            <feMergeNode in="OUTLINE"></feMergeNode>            <feMergeNode in="SourceGraphic"></feMergeNode>        </feMerge>    </filter>    <filter id="hover" height="200%">        <feMorphology in="SourceAlpha" result="DILATED" operator="dilate" radius="2"></feMorphology>                <feFlood flood-color="#ff0000" flood-opacity="0.5" result="PINK"></feFlood>        <feComposite in="PINK" in2="DILATED" operator="in" result="OUTLINE"></feComposite>        <feMerge>            <feMergeNode in="OUTLINE"></feMergeNode>            <feMergeNode in="SourceGraphic"></feMergeNode>        </feMerge>            <feColorMatrix type="matrix" values="0   0   0   0   0                0   1   0   0   0                0   0   0   0   0                0   0   0   1   0 "></feColorMatrix>    </filter></defs></svg>